<svg width="307" height="184" viewBox="0 0 307 184" fill="none" xmlns="http://www.w3.org/2000/svg">
<g clip-path="url(#clip0_5517_14925)">
<mask id="mask0_5517_14925" style="mask-type:alpha" maskUnits="userSpaceOnUse" x="0" y="0" width="307" height="184">
<rect width="307" height="184" rx="15" fill="white"/>
</mask>
<g mask="url(#mask0_5517_14925)">
<rect width="307" height="184" rx="15" fill="white"/>
<rect x="0.5" y="0.5" width="306" height="183" rx="14.5" stroke="#0A55D0" stroke-opacity="0.2"/>
<path d="M77.2266 165.203V172.124" stroke="#BABABA" stroke-width="2.33581" stroke-linecap="round" stroke-linejoin="round"/>
<path d="M73.7617 168.654H80.683" stroke="#BABABA" stroke-width="2.33581" stroke-linecap="round" stroke-linejoin="round"/>
<path d="M123.926 42V48.9213" stroke="#BABABA" stroke-width="2.33581" stroke-linecap="round" stroke-linejoin="round"/>
<path d="M120.477 45.4692H127.398" stroke="#BABABA" stroke-width="2.33581" stroke-linecap="round" stroke-linejoin="round"/>
<path d="M203.246 53.4351V60.3563" stroke="#BABABA" stroke-width="2.33581" stroke-linecap="round" stroke-linejoin="round"/>
<path d="M199.777 56.9043H206.699" stroke="#BABABA" stroke-width="2.33581" stroke-linecap="round" stroke-linejoin="round"/>
<path d="M169.173 58.6391C170.043 58.6391 170.749 57.9338 170.749 57.0637C170.749 56.1936 170.043 55.4883 169.173 55.4883C168.303 55.4883 167.598 56.1936 167.598 57.0637C167.598 57.9338 168.303 58.6391 169.173 58.6391Z" fill="#CFCFCF"/>
<path d="M224.736 89.4751C225.606 89.4751 226.311 88.7697 226.311 87.8997C226.311 87.0296 225.606 86.3242 224.736 86.3242C223.866 86.3242 223.16 87.0296 223.16 87.8997C223.16 88.7697 223.866 89.4751 224.736 89.4751Z" fill="#CFCFCF"/>
<path d="M101.478 70.7471C102.348 70.7471 103.053 70.0417 103.053 69.1716C103.053 68.3015 102.348 67.5962 101.478 67.5962C100.608 67.5962 99.9023 68.3015 99.9023 69.1716C99.9023 70.0417 100.608 70.7471 101.478 70.7471Z" fill="#CFCFCF"/>
<path d="M179.863 106.964C166.374 106.964 152.673 106.415 139.857 102.857C127.041 99.2989 115.783 92.59 105.41 84.7483C98.6659 79.6325 92.5057 75.5789 83.7789 76.1984C75.2197 76.654 67.034 79.8501 60.4306 85.3147C49.2256 95.0682 50.9957 113.106 55.4211 125.78C62.1123 144.898 82.4867 158.156 99.7988 166.812C119.801 176.796 141.769 182.602 163.807 185.948C183.279 188.886 207.937 191.01 224.665 178.389C240.048 166.812 244.261 140.349 240.49 122.488C239.578 117.209 236.771 112.444 232.595 109.088C221.797 101.193 205.689 106.468 193.546 106.734C189.067 106.84 184.465 106.946 179.863 106.964Z" fill="#153D80" fill-opacity="0.02"/>
<path d="M103.497 94.7861H92.4336V185.683H103.497V94.7861Z" fill="white" stroke="#153D80" stroke-opacity="0.1" stroke-width="2.33581" stroke-linecap="round" stroke-linejoin="round"/>
<path d="M201.278 94.7861H190.215V185.683H201.278V94.7861Z" fill="white" stroke="#153D80" stroke-opacity="0.1" stroke-width="2.33581" stroke-linecap="round" stroke-linejoin="round"/>
<path d="M152.392 94.7861H141.328V185.683H152.392V94.7861Z" fill="white" stroke="#153D80" stroke-opacity="0.1" stroke-width="2.33581" stroke-linecap="round" stroke-linejoin="round"/>
<path d="M208.575 179.824H85.125V188.463H208.575V179.824Z" fill="white" stroke="#153D80" stroke-opacity="0.1" stroke-width="2.33581" stroke-linecap="round" stroke-linejoin="round"/>
<path d="M208.575 96.6621H85.125V105.3H208.575V96.6621Z" fill="white" stroke="#153D80" stroke-opacity="0.1" stroke-width="2.33581" stroke-linecap="round" stroke-linejoin="round"/>
<path d="M216.432 97.1041L146.901 56.1074L77.3516 97.1041H216.432Z" fill="white" stroke="#153D80" stroke-opacity="0.1" stroke-width="2.33581" stroke-linecap="round" stroke-linejoin="round"/>
<path d="M147.383 91.8825C154.393 91.8825 160.075 86.2001 160.075 79.1905C160.075 72.1809 154.393 66.4985 147.383 66.4985C140.374 66.4985 134.691 72.1809 134.691 79.1905C134.691 86.2001 140.374 91.8825 147.383 91.8825Z" fill="#153D80"/>
<path d="M146.78 87.4749V85.4392C145.68 85.45 144.6 85.1493 143.664 84.5718L144.124 83.2265C144.996 83.7822 146.011 84.0714 147.045 84.0585C148.479 84.0585 149.435 83.2088 149.417 82.0582C149.399 80.9076 148.62 80.288 147.116 79.6862C145.062 78.8896 143.77 77.916 143.753 76.1459C143.758 75.3219 144.068 74.5291 144.624 73.9209C145.18 73.3127 145.942 72.9323 146.762 72.8534V70.9062H148.019V72.8711C148.94 72.874 149.846 73.1051 150.656 73.5438L150.161 74.8891C149.39 74.4347 148.506 74.2077 147.612 74.2341C146.054 74.2341 145.487 75.1723 145.487 76.0043C145.487 76.8363 146.248 77.562 148.019 78.2701C150.107 79.102 151.152 80.1464 151.169 81.9343C151.175 82.8095 150.856 83.6557 150.274 84.3095C149.692 84.9632 148.889 85.3783 148.019 85.4746V87.5634L146.78 87.4749Z" fill="white"/>
<rect width="307" height="184" rx="15" fill="url(#paint0_linear_5517_14925)" fill-opacity="0.6"/>
<rect x="0.5" y="0.5" width="306" height="183" rx="14.5" stroke="#0A55D0" stroke-opacity="0.2"/>
<path d="M95.497 36.896H98.317V38H94.129V29.66H95.497V36.896ZM99.956 30.512C99.708 30.512 99.5 30.428 99.332 30.26C99.164 30.092 99.08 29.884 99.08 29.636C99.08 29.388 99.164 29.18 99.332 29.012C99.5 28.844 99.708 28.76 99.956 28.76C100.196 28.76 100.4 28.844 100.568 29.012C100.736 29.18 100.82 29.388 100.82 29.636C100.82 29.884 100.736 30.092 100.568 30.26C100.4 30.428 100.196 30.512 99.956 30.512ZM100.628 31.388V38H99.26V31.388H100.628ZM105.559 31.28C106.079 31.28 106.543 31.388 106.951 31.604C107.367 31.82 107.691 32.14 107.923 32.564C108.155 32.988 108.271 33.5 108.271 34.1V38H106.915V34.304C106.915 33.712 106.767 33.26 106.471 32.948C106.175 32.628 105.771 32.468 105.259 32.468C104.747 32.468 104.339 32.628 104.035 32.948C103.739 33.26 103.591 33.712 103.591 34.304V38H102.223V31.388H103.591V32.144C103.815 31.872 104.099 31.66 104.443 31.508C104.795 31.356 105.167 31.28 105.559 31.28ZM112.431 34.7L115.479 38H113.631L111.183 35.156V38H109.815V29.12H111.183V34.28L113.583 31.388H115.479L112.431 34.7ZM123.639 33.716C124.087 33.796 124.467 34.032 124.779 34.424C125.091 34.816 125.247 35.26 125.247 35.756C125.247 36.18 125.135 36.564 124.911 36.908C124.695 37.244 124.379 37.512 123.963 37.712C123.547 37.904 123.063 38 122.511 38H119.175V29.66H122.355C122.923 29.66 123.411 29.756 123.819 29.948C124.227 30.14 124.535 30.4 124.743 30.728C124.951 31.048 125.055 31.408 125.055 31.808C125.055 32.288 124.927 32.688 124.671 33.008C124.415 33.328 124.071 33.564 123.639 33.716ZM120.543 33.164H122.235C122.683 33.164 123.031 33.064 123.279 32.864C123.535 32.656 123.663 32.36 123.663 31.976C123.663 31.6 123.535 31.308 123.279 31.1C123.031 30.884 122.683 30.776 122.235 30.776H120.543V33.164ZM122.391 36.884C122.855 36.884 123.219 36.772 123.483 36.548C123.747 36.324 123.879 36.012 123.879 35.612C123.879 35.204 123.739 34.88 123.459 34.64C123.179 34.4 122.807 34.28 122.343 34.28H120.543V36.884H122.391ZM126.076 34.664C126.076 34 126.212 33.412 126.484 32.9C126.764 32.388 127.14 31.992 127.612 31.712C128.092 31.424 128.62 31.28 129.196 31.28C129.716 31.28 130.168 31.384 130.552 31.592C130.944 31.792 131.256 32.044 131.488 32.348V31.388H132.868V38H131.488V37.016C131.256 37.328 130.94 37.588 130.54 37.796C130.14 38.004 129.684 38.108 129.172 38.108C128.604 38.108 128.084 37.964 127.612 37.676C127.14 37.38 126.764 36.972 126.484 36.452C126.212 35.924 126.076 35.328 126.076 34.664ZM131.488 34.688C131.488 34.232 131.392 33.836 131.2 33.5C131.016 33.164 130.772 32.908 130.468 32.732C130.164 32.556 129.836 32.468 129.484 32.468C129.132 32.468 128.804 32.556 128.5 32.732C128.196 32.9 127.948 33.152 127.756 33.488C127.572 33.816 127.48 34.208 127.48 34.664C127.48 35.12 127.572 35.52 127.756 35.864C127.948 36.208 128.196 36.472 128.5 36.656C128.812 36.832 129.14 36.92 129.484 36.92C129.836 36.92 130.164 36.832 130.468 36.656C130.772 36.48 131.016 36.224 131.2 35.888C131.392 35.544 131.488 35.144 131.488 34.688ZM137.8 31.28C138.32 31.28 138.784 31.388 139.192 31.604C139.608 31.82 139.932 32.14 140.164 32.564C140.396 32.988 140.512 33.5 140.512 34.1V38H139.156V34.304C139.156 33.712 139.008 33.26 138.712 32.948C138.416 32.628 138.012 32.468 137.5 32.468C136.988 32.468 136.58 32.628 136.276 32.948C135.98 33.26 135.832 33.712 135.832 34.304V38H134.464V31.388H135.832V32.144C136.056 31.872 136.34 31.66 136.684 31.508C137.036 31.356 137.408 31.28 137.8 31.28ZM144.672 34.7L147.72 38H145.872L143.424 35.156V38H142.056V29.12H143.424V34.28L145.824 31.388H147.72L144.672 34.7ZM156.444 36.296H152.952L152.352 38H150.924L153.912 29.648H155.496L158.484 38H157.044L156.444 36.296ZM156.06 35.18L154.704 31.304L153.336 35.18H156.06ZM159.126 34.688C159.126 34.008 159.262 33.412 159.534 32.9C159.814 32.38 160.198 31.98 160.686 31.7C161.174 31.42 161.734 31.28 162.366 31.28C163.166 31.28 163.826 31.472 164.346 31.856C164.874 32.232 165.23 32.772 165.414 33.476H163.938C163.818 33.148 163.626 32.892 163.362 32.708C163.098 32.524 162.766 32.432 162.366 32.432C161.806 32.432 161.358 32.632 161.022 33.032C160.694 33.424 160.53 33.976 160.53 34.688C160.53 35.4 160.694 35.956 161.022 36.356C161.358 36.756 161.806 36.956 162.366 36.956C163.158 36.956 163.682 36.608 163.938 35.912H165.414C165.222 36.584 164.862 37.12 164.334 37.52C163.806 37.912 163.15 38.108 162.366 38.108C161.734 38.108 161.174 37.968 160.686 37.688C160.198 37.4 159.814 37 159.534 36.488C159.262 35.968 159.126 35.368 159.126 34.688ZM166.121 34.688C166.121 34.008 166.257 33.412 166.529 32.9C166.809 32.38 167.193 31.98 167.681 31.7C168.169 31.42 168.729 31.28 169.361 31.28C170.161 31.28 170.821 31.472 171.341 31.856C171.869 32.232 172.225 32.772 172.409 33.476H170.933C170.813 33.148 170.621 32.892 170.357 32.708C170.093 32.524 169.761 32.432 169.361 32.432C168.801 32.432 168.353 32.632 168.017 33.032C167.689 33.424 167.525 33.976 167.525 34.688C167.525 35.4 167.689 35.956 168.017 36.356C168.353 36.756 168.801 36.956 169.361 36.956C170.153 36.956 170.677 36.608 170.933 35.912H172.409C172.217 36.584 171.857 37.12 171.329 37.52C170.801 37.912 170.145 38.108 169.361 38.108C168.729 38.108 168.169 37.968 167.681 37.688C167.193 37.4 166.809 37 166.529 36.488C166.257 35.968 166.121 35.368 166.121 34.688ZM176.439 38.108C175.815 38.108 175.251 37.968 174.747 37.688C174.243 37.4 173.847 37 173.559 36.488C173.271 35.968 173.127 35.368 173.127 34.688C173.127 34.016 173.275 33.42 173.571 32.9C173.867 32.38 174.271 31.98 174.783 31.7C175.295 31.42 175.867 31.28 176.499 31.28C177.131 31.28 177.703 31.42 178.215 31.7C178.727 31.98 179.131 32.38 179.427 32.9C179.723 33.42 179.871 34.016 179.871 34.688C179.871 35.36 179.719 35.956 179.415 36.476C179.111 36.996 178.695 37.4 178.167 37.688C177.647 37.968 177.071 38.108 176.439 38.108ZM176.439 36.92C176.791 36.92 177.119 36.836 177.423 36.668C177.735 36.5 177.987 36.248 178.179 35.912C178.371 35.576 178.467 35.168 178.467 34.688C178.467 34.208 178.375 33.804 178.191 33.476C178.007 33.14 177.763 32.888 177.459 32.72C177.155 32.552 176.827 32.468 176.475 32.468C176.123 32.468 175.795 32.552 175.491 32.72C175.195 32.888 174.959 33.14 174.783 33.476C174.607 33.804 174.519 34.208 174.519 34.688C174.519 35.4 174.699 35.952 175.059 36.344C175.427 36.728 175.887 36.92 176.439 36.92ZM187.01 31.388V38H185.642V37.22C185.426 37.492 185.142 37.708 184.79 37.868C184.446 38.02 184.078 38.096 183.686 38.096C183.166 38.096 182.698 37.988 182.282 37.772C181.874 37.556 181.55 37.236 181.31 36.812C181.078 36.388 180.962 35.876 180.962 35.276V31.388H182.318V35.072C182.318 35.664 182.466 36.12 182.762 36.44C183.058 36.752 183.462 36.908 183.974 36.908C184.486 36.908 184.89 36.752 185.186 36.44C185.49 36.12 185.642 35.664 185.642 35.072V31.388H187.01ZM191.95 31.28C192.47 31.28 192.934 31.388 193.342 31.604C193.758 31.82 194.082 32.14 194.314 32.564C194.546 32.988 194.662 33.5 194.662 34.1V38H193.306V34.304C193.306 33.712 193.158 33.26 192.862 32.948C192.566 32.628 192.162 32.468 191.65 32.468C191.138 32.468 190.73 32.628 190.426 32.948C190.13 33.26 189.982 33.712 189.982 34.304V38H188.614V31.388H189.982V32.144C190.206 31.872 190.49 31.66 190.834 31.508C191.186 31.356 191.558 31.28 191.95 31.28ZM197.802 32.504V36.164C197.802 36.412 197.858 36.592 197.97 36.704C198.09 36.808 198.29 36.86 198.57 36.86H199.41V38H198.33C197.714 38 197.242 37.856 196.914 37.568C196.586 37.28 196.422 36.812 196.422 36.164V32.504H195.642V31.388H196.422V29.744H197.802V31.388H199.41V32.504H197.802Z" fill="#0A55D0" fill-opacity="0.45"/>
</g>
</g>
<defs>
<linearGradient id="paint0_linear_5517_14925" x1="153.5" y1="0" x2="154" y2="184" gradientUnits="userSpaceOnUse">
<stop stop-color="white" stop-opacity="0"/>
<stop offset="1" stop-color="white"/>
</linearGradient>
<clipPath id="clip0_5517_14925">
<rect width="307" height="184" fill="white"/>
</clipPath>
</defs>
</svg>
