<svg width="139" height="44" viewBox="0 0 139 44" fill="none" xmlns="http://www.w3.org/2000/svg">
<g clip-path="url(#clip0_3145_7144)">
<path d="M7.59834 32.041C7.03014 32.0555 6.56393 31.9536 6.19971 31.735C5.82091 31.5165 5.52953 31.196 5.32556 30.7735C5.10703 30.3655 4.96862 29.8629 4.91035 29.2656C4.85207 28.6828 4.85207 28.0418 4.91035 27.3424C4.98319 26.8034 5.11431 26.2425 5.30371 25.6597C5.46397 25.1644 5.71164 24.618 6.04673 24.0207C6.36725 23.4234 6.80432 22.8406 7.35795 22.2724C7.4745 22.3016 7.5692 22.338 7.64204 22.3817C7.71489 22.4108 7.77316 22.4472 7.81687 22.491C7.86058 22.5492 7.88972 22.6002 7.90429 22.6439C7.93342 22.8042 7.88972 22.9863 7.77316 23.1903C7.65661 23.3942 7.54006 23.6128 7.42351 23.8459C7.10299 24.516 6.8626 25.1498 6.70234 25.7471C6.54208 26.3445 6.4401 26.8981 6.39639 27.408C6.36725 27.8451 6.37454 28.2384 6.41824 28.5881C6.44738 28.9523 6.49837 29.2583 6.57122 29.5059C6.64406 29.7682 6.72419 29.9649 6.81161 30.096C6.89902 30.2417 6.97915 30.3145 7.052 30.3145C7.12484 30.3145 7.19769 30.2635 7.27053 30.1616C7.35795 30.0596 7.43808 29.9357 7.51092 29.79C7.59834 29.6444 7.70032 29.4185 7.81687 29.1126C7.93342 28.8212 8.05726 28.4788 8.18838 28.0855C8.3195 27.6921 8.44334 27.2696 8.55989 26.818C8.69101 26.3518 8.80757 25.8855 8.90955 25.4193C9.11352 24.4869 9.33205 23.4379 9.56516 22.2724C9.79826 21.0923 10.1406 19.8612 10.5923 18.5792C10.738 18.0401 10.9201 17.4501 11.1386 16.809C11.3134 16.2554 11.532 15.6144 11.7942 14.8859C12.071 14.1429 12.3843 13.3416 12.7339 12.482C12.7339 12.4092 12.7922 12.3436 12.9088 12.2853C13.0399 12.2125 13.1856 12.1396 13.3458 12.0668C13.5207 11.9939 13.7173 11.9211 13.9359 11.8483C14.2273 11.7463 14.4531 11.688 14.6133 11.6734C14.7882 11.6589 14.9193 11.6807 15.0067 11.739C15.0941 11.7973 15.1524 11.8774 15.1815 11.9794C15.2107 12.0668 15.2252 12.1688 15.2252 12.2853C15.2544 12.7661 15.2689 13.2178 15.2689 13.6403C15.2835 14.0628 15.2981 14.4343 15.3126 14.7548C15.3272 15.1336 15.3345 15.476 15.3345 15.7819C15.3491 16.1898 15.3272 16.7362 15.2689 17.4209C15.2107 18.0911 15.1451 18.7977 15.0723 19.5407C15.014 20.2837 14.9557 21.0122 14.8974 21.7261C14.8537 22.4254 14.8464 23.0082 14.8756 23.4744C14.8756 23.722 14.8829 23.9551 14.8974 24.1737C14.9266 24.3776 14.9557 24.5816 14.9848 24.7856C15.1742 24.2611 15.3855 23.7148 15.6186 23.1466C15.8517 22.5638 16.0848 22.0102 16.3179 21.4857C16.551 20.9466 16.7696 20.4513 16.9735 19.9996C17.1775 19.5334 17.3377 19.1474 17.4543 18.8414C17.6291 18.4335 17.8622 17.9163 18.1536 17.2898C18.445 16.6633 18.7364 16.0369 19.0278 15.4104C19.3337 14.7839 19.6105 14.2084 19.8582 13.684C20.1204 13.1595 20.3098 12.7952 20.4264 12.5913C20.5138 12.4456 20.6595 12.3145 20.8635 12.1979C21.082 12.0814 21.3078 11.9794 21.5409 11.892C21.7886 11.8046 22.0144 11.7463 22.2184 11.7171C22.4369 11.6734 22.5826 11.6661 22.6555 11.6953C22.8448 11.739 22.976 11.7973 23.0488 11.8701C23.1362 11.943 23.1872 11.9939 23.2018 12.0231C23.2309 12.0814 23.2528 12.1833 23.2674 12.329C23.2819 12.4602 23.2746 12.6714 23.2455 12.9628C23.2164 13.3124 23.1289 13.8442 22.9833 14.5581C22.8521 15.272 22.6846 16.0879 22.4806 17.0057C22.2912 17.909 22.08 18.8778 21.8469 19.9122C21.6283 20.9466 21.4171 21.9665 21.2131 22.9717C21.0091 23.9624 20.827 24.8948 20.6668 25.769C20.5211 26.6431 20.4264 27.3789 20.3827 27.9762C20.3535 28.6464 20.3972 29.2364 20.5138 29.7463C20.5575 29.9649 20.6231 30.1761 20.7105 30.3801C20.7979 30.5841 20.9144 30.7589 21.0601 30.9046C21.2058 31.0648 21.3807 31.1814 21.5846 31.2542C21.7886 31.3271 22.029 31.3489 22.3058 31.3198C21.9416 31.5675 21.5846 31.7496 21.235 31.8661C20.8853 31.9827 20.5429 32.041 20.2078 32.041C19.8436 32.0555 19.5231 31.9973 19.2463 31.8661C18.9695 31.7496 18.7364 31.5748 18.547 31.3417C18.3576 31.1231 18.2192 30.8536 18.1318 30.5331C18.0443 30.2271 18.0152 29.8847 18.0443 29.5059C18.0735 29.1563 18.1682 28.5808 18.3284 27.7795C18.4887 26.9782 18.6781 26.0749 18.8966 25.0697C19.1297 24.0498 19.3774 22.9936 19.6397 21.9009C19.9165 20.7937 20.1714 19.7593 20.4045 18.7977C20.6522 17.8216 20.8635 16.9838 21.0383 16.2845C21.2131 15.5852 21.3224 15.1263 21.3661 14.9078C21.3952 14.7329 21.4171 14.5727 21.4316 14.427C21.4608 14.2667 21.4899 14.1283 21.5191 14.0118C21.3734 14.3031 21.1913 14.6528 20.9727 15.0607C20.7688 15.4687 20.5502 15.9057 20.3171 16.3719C20.084 16.8382 19.8436 17.3262 19.5959 17.8361C19.3628 18.3315 19.137 18.8123 18.9185 19.2785C18.5543 20.0361 18.1973 20.8155 17.8477 21.6168C17.498 22.4035 17.1848 23.1538 16.908 23.8677C16.6311 24.5816 16.398 25.2226 16.2086 25.7908C16.0338 26.359 15.9318 26.7961 15.9027 27.1021V27.408C15.9027 27.4954 15.9027 27.5974 15.9027 27.714C15.9173 27.8305 15.9391 27.9398 15.9683 28.0418L15.0941 28.7192C14.963 28.7629 14.8464 28.7994 14.7445 28.8285C14.657 28.8576 14.5696 28.8722 14.4822 28.8722C14.1471 28.8722 13.8922 28.6974 13.7173 28.3477C13.5425 28.0272 13.3822 27.4007 13.2366 26.4683C13.0909 25.5359 13.0472 24.3922 13.1054 23.0373C13.1346 22.3671 13.1783 21.6897 13.2366 21.0049C13.3094 20.3202 13.375 19.6646 13.4332 19.0381C13.5061 18.4116 13.5716 17.8289 13.6299 17.2898C13.6882 16.7362 13.7173 16.2627 13.7173 15.8693C13.7319 15.5779 13.7246 15.3157 13.6955 15.0826C13.6663 14.8349 13.6372 14.6091 13.6081 14.4051C13.4769 14.7402 13.3313 15.1991 13.171 15.7819C13.0107 16.3501 12.8432 16.9838 12.6684 17.6832C12.4935 18.3825 12.3114 19.1182 12.122 19.8904C11.9472 20.6625 11.7724 21.4056 11.5975 22.1194C11.4373 22.8333 11.2843 23.4962 11.1386 24.1081C10.9929 24.7054 10.8764 25.1862 10.789 25.5505C10.6433 26.1332 10.4976 26.7961 10.3519 27.5391C10.2062 28.2821 10.0241 28.9815 9.80555 29.6371C9.58701 30.3072 9.30291 30.8682 8.95326 31.3198C8.6036 31.786 8.15196 32.0264 7.59834 32.041ZM29.9764 24.4796C29.8307 25.0333 29.634 25.5505 29.3864 26.0312C29.1387 26.512 28.84 26.9272 28.4904 27.2769C28.1553 27.6265 27.7692 27.8961 27.3321 28.0855C26.9096 28.2894 26.4434 28.3914 25.9335 28.3914C25.3362 28.3914 24.8627 28.2603 24.513 27.9981C24.1779 27.7504 23.923 27.4371 23.7481 27.0583C23.5879 26.6796 23.4932 26.2643 23.464 25.8127C23.4203 25.3611 23.3985 24.9386 23.3985 24.5452C23.3985 24.2684 23.4349 23.9624 23.5077 23.6273C23.566 23.2922 23.6534 22.9499 23.77 22.6002C23.8865 22.2506 24.0322 21.9009 24.2071 21.5512C24.3965 21.2016 24.615 20.8811 24.8627 20.5897C24.9501 20.342 25.0812 20.1235 25.256 19.9341C25.4454 19.7447 25.6567 19.5917 25.8898 19.4752C26.1375 19.344 26.3997 19.2493 26.6765 19.1911C26.9533 19.1182 27.2228 19.0818 27.4851 19.0818C27.5288 19.0818 27.5652 19.0891 27.5944 19.1036C27.6381 19.1182 27.6818 19.1328 27.7255 19.1474C27.9149 19.1619 28.148 19.2348 28.4248 19.3659C28.7162 19.497 28.993 19.6937 29.2552 19.9559C29.532 20.2182 29.7651 20.5533 29.9545 20.9612C30.1439 21.3546 30.2386 21.8353 30.2386 22.4035C30.2386 22.5201 30.2314 22.6658 30.2168 22.8406C30.2022 23.0009 30.1877 23.1393 30.1731 23.2558C30.5082 23.1247 30.8578 22.9644 31.2221 22.775C31.5863 22.5857 31.9359 22.389 32.271 22.185C32.6207 21.9665 32.9412 21.7479 33.2326 21.5294C33.524 21.3109 33.7571 21.1142 33.9319 20.9393C34.0776 20.8082 34.2014 20.7354 34.3034 20.7208C34.4054 20.7062 34.4782 20.7354 34.5219 20.8082C34.5657 20.8811 34.5729 20.9831 34.5438 21.1142C34.5147 21.2453 34.4345 21.391 34.3034 21.5512C34.2306 21.6387 34.0412 21.8135 33.7352 22.0757C33.4438 22.338 33.0942 22.6221 32.6862 22.928C32.2783 23.234 31.834 23.5326 31.3532 23.824C30.8724 24.1154 30.4135 24.3339 29.9764 24.4796ZM26.2831 21.1579C26.2394 21.289 26.2176 21.4274 26.2176 21.5731C26.2176 21.8062 26.2322 22.0539 26.2613 22.3161C26.2904 22.5638 26.3633 22.7896 26.4798 22.9936C26.5964 23.1976 26.7785 23.3724 27.0262 23.5181C27.2884 23.6492 27.6454 23.7148 28.097 23.7148C28.1698 23.7148 28.2427 23.7148 28.3155 23.7148C28.3884 23.7002 28.4612 23.6856 28.5341 23.671C28.5778 23.4816 28.6142 23.3141 28.6433 23.1684C28.687 23.0082 28.7089 22.8697 28.7089 22.7532C28.738 22.4764 28.738 22.1923 28.7089 21.9009C28.6798 21.6095 28.6215 21.3473 28.5341 21.1142C28.4612 20.8665 28.3592 20.6698 28.2281 20.5241C28.1116 20.3639 27.9659 20.2837 27.791 20.2837C27.5142 20.2837 27.2447 20.3639 26.9825 20.5241C26.7348 20.6698 26.5017 20.8811 26.2831 21.1579ZM24.8845 25.0041C24.8845 25.2664 24.8991 25.5286 24.9282 25.7908C24.9574 26.0385 25.0156 26.2643 25.1031 26.4683C25.1905 26.6577 25.307 26.818 25.4527 26.9491C25.5984 27.0656 25.7878 27.1239 26.0209 27.1239C26.2831 27.1239 26.5235 27.0656 26.7421 26.9491C26.9606 26.818 27.1573 26.6577 27.3321 26.4683C27.5069 26.2643 27.6599 26.0385 27.791 25.7908C27.9367 25.5286 28.0606 25.2591 28.1626 24.9823C28.0606 24.9968 27.9586 25.0114 27.8566 25.026C27.7692 25.026 27.6672 25.026 27.5507 25.026C26.997 25.026 26.5162 24.8657 26.1083 24.5452C25.715 24.2101 25.409 23.7876 25.1905 23.2777C25.1031 23.5836 25.0302 23.8823 24.9719 24.1737C24.9137 24.4651 24.8845 24.7419 24.8845 25.0041ZM38.8052 28.5007C38.4702 28.5007 38.1788 28.4351 37.9311 28.304C37.698 28.1875 37.5086 28.0272 37.3629 27.8232C37.2172 27.6193 37.1225 27.3862 37.0788 27.1239C37.0351 26.8471 37.0497 26.5557 37.1225 26.2498C37.1662 26.0458 37.2391 25.7763 37.3411 25.4412C37.443 25.0915 37.545 24.72 37.647 24.3267C37.7636 23.9187 37.8655 23.5181 37.953 23.1247C38.0549 22.7168 38.1205 22.3525 38.1496 22.032C38.1788 21.6969 38.1642 21.4274 38.1059 21.2234C38.0477 21.0049 37.9238 20.8956 37.7344 20.8956C37.5013 20.8956 37.2609 20.9758 37.0133 21.136C36.7656 21.2817 36.5106 21.4857 36.2484 21.7479C36.0007 22.0102 35.7457 22.3161 35.4835 22.6658C35.2358 23.0009 34.9882 23.3505 34.7405 23.7148C34.6094 24.2101 34.5001 24.6472 34.4127 25.026C34.3253 25.3902 34.2451 25.7253 34.1723 26.0312C34.114 26.3226 34.0557 26.5849 33.9975 26.818C33.9392 27.0365 33.8882 27.2477 33.8445 27.4517C33.8008 27.5974 33.6697 27.7431 33.4511 27.8888C33.2326 28.0199 32.9995 28.1292 32.7518 28.2166C32.5041 28.304 32.2929 28.3477 32.118 28.3477C31.9287 28.3477 31.8485 28.2821 31.8777 28.151C31.8922 28.0636 31.9432 27.8669 32.0306 27.561C32.1035 27.255 32.1982 26.8981 32.3147 26.4902C32.4167 26.0677 32.526 25.6233 32.6425 25.1571C32.7591 24.6909 32.8684 24.2465 32.9703 23.824C33.0432 23.4889 33.1233 23.1174 33.2107 22.7095C33.2836 22.3598 33.371 21.9519 33.473 21.4857C33.5895 21.0195 33.7206 20.5096 33.8663 19.9559C33.9683 19.8685 34.0703 19.803 34.1723 19.7593C34.2888 19.701 34.4054 19.6573 34.5219 19.6281C34.6385 19.5844 34.7623 19.5553 34.8935 19.5407C35.01 19.5407 35.1266 19.548 35.2431 19.5626C35.3451 19.5771 35.4471 19.6063 35.5491 19.65C35.6656 19.6791 35.7676 19.7301 35.855 19.803C35.8113 19.9049 35.7603 20.0506 35.702 20.24C35.6438 20.4149 35.5855 20.6043 35.5272 20.8082C35.4689 21.0413 35.3961 21.2817 35.3087 21.5294C35.4981 21.2672 35.7093 21.0049 35.9424 20.7427C36.1901 20.4659 36.4523 20.2182 36.7292 19.9996C37.0205 19.7811 37.3265 19.6063 37.647 19.4752C37.9675 19.3295 38.2953 19.2566 38.6304 19.2566C38.9072 19.2566 39.1549 19.3368 39.3734 19.497C39.592 19.6573 39.7595 19.8831 39.8761 20.1745C40.0072 20.4513 40.08 20.7864 40.0946 21.1797C40.1237 21.5731 40.0728 22.0029 39.9416 22.4691L39.7012 23.4307C39.6284 23.7366 39.5337 24.1008 39.4171 24.5233C39.3152 24.9313 39.184 25.3829 39.0238 25.8783C38.9364 26.1988 38.8999 26.4756 38.9145 26.7087C38.9437 26.9418 39.0893 27.0583 39.3516 27.0583C39.6138 27.0583 39.9416 26.8981 40.335 26.5776C40.7429 26.2571 41.1509 25.871 41.5588 25.4193C41.9667 24.9677 42.3528 24.5088 42.717 24.0426C43.0813 23.5618 43.3581 23.1757 43.5475 22.8843C43.6786 22.6949 43.8024 22.5711 43.919 22.5128C44.0355 22.4545 44.1229 22.4472 44.1812 22.491C44.2541 22.5347 44.2905 22.6366 44.2905 22.7969C44.2905 22.9426 44.2322 23.132 44.1157 23.3651C44.0137 23.5691 43.8534 23.8386 43.6349 24.1737C43.4309 24.5088 43.1832 24.8657 42.8919 25.2445C42.6005 25.6233 42.2872 26.0094 41.9522 26.4027C41.6171 26.7815 41.2674 27.1312 40.9032 27.4517C40.539 27.7577 40.1747 28.0053 39.8105 28.1947C39.4609 28.3987 39.1258 28.5007 38.8052 28.5007ZM47.4593 15.0826C47.4156 15.2428 47.3281 15.4031 47.197 15.5634C47.0805 15.7091 46.9421 15.8329 46.7818 15.9349C46.6361 16.0223 46.4831 16.0806 46.3229 16.1097C46.1626 16.1388 46.0315 16.1097 45.9295 16.0223C45.6236 15.7892 45.4633 15.5415 45.4487 15.2793C45.4342 15.0025 45.4997 14.7475 45.6454 14.5144C45.7911 14.2667 45.9732 14.0628 46.1918 13.9025C46.4103 13.7277 46.5997 13.6257 46.7599 13.5965C46.9202 13.5674 47.0513 13.6038 47.1533 13.7058C47.2699 13.7932 47.3573 13.9171 47.4156 14.0773C47.4738 14.223 47.503 14.3906 47.503 14.58C47.5175 14.7694 47.503 14.9369 47.4593 15.0826ZM44.4435 19.7374C44.5163 19.65 44.6547 19.5771 44.8587 19.5189C45.0627 19.4606 45.2739 19.4169 45.4924 19.3877C45.711 19.344 45.9077 19.3222 46.0825 19.3222C46.2719 19.3076 46.3812 19.3076 46.4103 19.3222C46.4249 19.3368 46.3884 19.4897 46.301 19.7811C46.2136 20.0725 46.1043 20.4149 45.9732 20.8082C45.8421 21.2016 45.7037 21.6095 45.558 22.032C45.4123 22.44 45.303 22.775 45.2302 23.0373C45.1574 23.2995 45.0699 23.5982 44.968 23.9333C44.866 24.2538 44.7713 24.5743 44.6839 24.8948C44.611 25.2008 44.56 25.4922 44.5309 25.769C44.5017 26.0458 44.5236 26.2571 44.5964 26.4027C44.6693 26.5776 44.7494 26.7014 44.8368 26.7743C44.9242 26.8325 45.0189 26.8617 45.1209 26.8617C45.4123 26.8617 45.7765 26.7014 46.2136 26.3809C46.6652 26.0604 47.1169 25.6816 47.5685 25.2445C48.0347 24.7929 48.4645 24.3412 48.8579 23.8896C49.2513 23.4234 49.5426 23.0519 49.732 22.775C49.8486 22.6294 49.9651 22.5347 50.0817 22.491C50.2128 22.4472 50.3148 22.4545 50.3876 22.5128C50.4751 22.5711 50.5188 22.6658 50.5188 22.7969C50.5333 22.928 50.4896 23.081 50.3876 23.2558C50.1545 23.6638 49.8122 24.1518 49.3605 24.72C48.9089 25.2736 48.4281 25.8127 47.9182 26.3372C47.4083 26.8471 46.9056 27.2842 46.4103 27.6484C45.9295 28.0126 45.5361 28.202 45.2302 28.2166C44.9825 28.2312 44.7348 28.1875 44.4872 28.0855C44.2541 27.9981 44.0355 27.8742 43.8316 27.714C43.6422 27.5391 43.4819 27.3424 43.3508 27.1239C43.2197 26.8908 43.1468 26.6504 43.1323 26.4027C43.0885 26.0385 43.0885 25.5432 43.1323 24.9167C43.176 24.2757 43.2561 23.6273 43.3726 22.9717C43.4892 22.3016 43.6349 21.6678 43.8097 21.0705C43.9991 20.4731 44.2104 20.0288 44.4435 19.7374Z" fill="white"/>
<path d="M65.0543 22.4772C64.9669 22.8386 64.9172 23.2136 64.9095 23.5977C64.8619 25.9821 66.4527 27.9531 68.6484 28.4772C69.0553 28.5742 69.4828 28.6216 69.9247 28.6128L76.3213 28.4851C79.1475 28.4286 81.4844 26.0918 81.5409 23.2656C81.5972 20.4393 79.3519 18.194 76.5256 18.2504L75.1167 18.2785" stroke="white" stroke-width="2.34435" stroke-linecap="round"/>
<path d="M61.2424 28.1678L59.833 28.1959C57.0067 28.2524 54.7613 26.007 54.8178 23.1807C54.8742 20.3545 57.211 18.0177 60.0373 17.9612L66.434 17.8335C69.2602 17.7771 71.5056 20.0225 71.4491 22.8487C71.4416 23.2326 71.3917 23.6076 71.3045 23.9689" stroke="white" stroke-width="2.34435" stroke-linecap="round"/>
<path d="M73.0177 35.8022L71.0062 33.7906M63.3416 35.8022L65.3532 33.7906" stroke="white" stroke-width="2.34435" stroke-linecap="round" stroke-linejoin="round"/>
<path d="M63.3416 10.6445L65.3532 12.656M73.0177 10.6445L71.0062 12.656" stroke="white" stroke-width="2.34435" stroke-linecap="round" stroke-linejoin="round"/>
<path d="M90.0668 21.6702H97.2711V23.9409H90.0668V21.6702ZM90.2939 29.4731H87.6103V15.0232H98.1588V17.2733H90.2939V29.4731ZM100.305 29.4731V18.4499H102.761V21.4844L102.472 20.5968C102.802 19.8536 103.318 19.2894 104.02 18.9041C104.736 18.5187 105.624 18.3261 106.683 18.3261V20.7826C106.573 20.755 106.47 20.7413 106.374 20.7413C106.277 20.7275 106.181 20.7206 106.085 20.7206C105.108 20.7206 104.33 21.0096 103.752 21.5876C103.174 22.1519 102.885 22.9982 102.885 24.1267V29.4731H100.305ZM114.877 29.4731V27.2437L114.733 26.7689V22.8675C114.733 22.1106 114.506 21.5257 114.052 21.1128C113.598 20.6862 112.91 20.4729 111.987 20.4729C111.368 20.4729 110.756 20.5692 110.15 20.7619C109.559 20.9546 109.056 21.2229 108.643 21.567L107.632 19.6885C108.224 19.2343 108.925 18.8972 109.737 18.677C110.563 18.443 111.416 18.3261 112.297 18.3261C113.893 18.3261 115.125 18.7114 115.992 19.4821C116.873 20.239 117.313 21.4156 117.313 23.012V29.4731H114.877ZM111.409 29.6176C110.584 29.6176 109.861 29.48 109.242 29.2048C108.623 28.9158 108.141 28.5236 107.797 28.0282C107.467 27.519 107.302 26.9479 107.302 26.3148C107.302 25.6955 107.446 25.1382 107.735 24.6427C108.038 24.1473 108.526 23.7551 109.201 23.4661C109.875 23.1771 110.77 23.0326 111.884 23.0326H115.084V24.746H112.07C111.189 24.746 110.598 24.8905 110.295 25.1795C109.992 25.4547 109.841 25.7987 109.841 26.2116C109.841 26.6795 110.026 27.0511 110.398 27.3263C110.77 27.6015 111.286 27.7392 111.946 27.7392C112.579 27.7392 113.143 27.5947 113.639 27.3057C114.148 27.0167 114.513 26.59 114.733 26.0258L115.166 27.574C114.919 28.2208 114.471 28.7231 113.825 29.0809C113.192 29.4387 112.387 29.6176 111.409 29.6176ZM126.735 29.6176C125.841 29.6176 125.022 29.4112 124.279 28.9984C123.549 28.5855 122.964 27.9662 122.524 27.1405C122.097 26.301 121.884 25.2414 121.884 23.9615C121.884 22.6679 122.09 21.6083 122.503 20.7826C122.93 19.9568 123.508 19.3444 124.237 18.9453C124.967 18.5325 125.799 18.3261 126.735 18.3261C127.822 18.3261 128.779 18.56 129.604 19.0279C130.444 19.4958 131.104 20.1495 131.586 20.989C132.082 21.8285 132.329 22.8193 132.329 23.9615C132.329 25.1038 132.082 26.1015 131.586 26.9547C131.104 27.7942 130.444 28.4479 129.604 28.9158C128.779 29.3837 127.822 29.6176 126.735 29.6176ZM120.625 33.4778V18.4499H123.081V21.0509L122.999 23.9822L123.205 26.9134V33.4778H120.625ZM126.446 27.4089C127.065 27.4089 127.616 27.2713 128.098 26.996C128.593 26.7208 128.985 26.3217 129.274 25.7987C129.563 25.2758 129.708 24.6634 129.708 23.9615C129.708 23.2459 129.563 22.6335 129.274 22.1243C128.985 21.6014 128.593 21.2023 128.098 20.9271C127.616 20.6518 127.065 20.5142 126.446 20.5142C125.827 20.5142 125.269 20.6518 124.774 20.9271C124.279 21.2023 123.886 21.6014 123.597 22.1243C123.308 22.6335 123.164 23.2459 123.164 23.9615C123.164 24.6634 123.308 25.2758 123.597 25.7987C123.886 26.3217 124.279 26.7208 124.774 26.996C125.269 27.2713 125.827 27.4089 126.446 27.4089Z" fill="white"/>
</g>
<defs>
<clipPath id="clip0_3145_7144">
<rect width="138.693" height="43.8658" fill="white"/>
</clipPath>
</defs>
</svg>
