<svg width="21" height="21" viewBox="0 0 21 21" fill="none" xmlns="http://www.w3.org/2000/svg">
<path d="M16.9507 12.5809L16.1145 11.1928C15.9389 10.8834 15.78 10.298 15.78 9.95515V7.83951C15.78 5.87439 14.626 4.17686 12.9619 3.38245C12.5271 2.61312 11.7243 2.13647 10.8045 2.13647C9.89301 2.13647 9.07351 2.62985 8.63868 3.40753C7.00804 4.21867 5.87914 5.89947 5.87914 7.83951V9.95515C5.87914 10.298 5.72026 10.8834 5.54466 11.1844L4.70007 12.5809C4.36558 13.1412 4.29032 13.76 4.49938 14.3286C4.70007 14.8889 5.17672 15.3237 5.79552 15.5327C7.41779 16.0847 9.12368 16.3522 10.8296 16.3522C12.5355 16.3522 14.2414 16.0847 15.8636 15.5411C16.449 15.3488 16.9005 14.9056 17.118 14.3286C17.3354 13.7516 17.2768 13.1161 16.9507 12.5809Z" fill="#AEC7ED"/>
<path d="M13.1758 17.1968C12.8246 18.1669 11.8964 18.8609 10.8093 18.8609C10.1487 18.8609 9.49645 18.5933 9.03653 18.1167C8.76894 17.8658 8.56824 17.5313 8.45117 17.1885C8.55988 17.2052 8.66859 17.2136 8.78566 17.2303C8.97799 17.2554 9.17868 17.2805 9.37938 17.2972C9.85602 17.339 10.341 17.3641 10.826 17.3641C11.3027 17.3641 11.7793 17.339 12.2476 17.2972C12.4232 17.2805 12.5988 17.2721 12.7661 17.247C12.8999 17.2303 13.0337 17.2136 13.1758 17.1968Z" fill="#AEC7ED"/>
</svg>
