<svg width="21" height="25" viewBox="0 0 21 25" fill="none" xmlns="http://www.w3.org/2000/svg">
<path d="M16.9833 13.4226C16.9556 10.4171 19.5074 8.95488 19.624 8.88681C18.1789 6.83244 15.9389 6.55175 15.1517 6.52937C13.2704 6.33634 11.4455 7.62696 10.4872 7.62696C9.50967 7.62696 8.03388 6.54802 6.44332 6.57973C4.39653 6.6105 2.48174 7.76591 1.43157 9.56009C-0.73573 13.2184 0.880656 18.5944 2.95709 21.5515C3.99579 22.9997 5.20951 24.6167 6.79816 24.5598C8.35238 24.4974 8.93294 23.5937 10.8085 23.5937C12.6669 23.5937 13.2121 24.5598 14.8323 24.5235C16.5003 24.4974 17.5505 23.0687 18.5528 21.6075C19.7532 19.9475 20.2352 18.3128 20.2543 18.2289C20.2151 18.2158 17.0149 17.025 16.9833 13.4226Z" fill="white"/>
<path d="M13.9227 4.58411C14.7586 3.56486 15.3306 2.17818 15.1718 0.770996C13.9619 0.823218 12.4488 1.58696 11.5775 2.58384C10.8066 3.46228 10.118 4.90211 10.2959 6.25614C11.655 6.35499 13.0504 5.58752 13.9227 4.58411Z" fill="white"/>
</svg>
