<svg width="21" height="20" viewBox="0 0 21 20" fill="none" xmlns="http://www.w3.org/2000/svg">
<path fill-rule="evenodd" clip-rule="evenodd" d="M10.8591 3.30827C10.9763 3.19123 11.1352 3.12549 11.3008 3.12549C11.4664 3.12549 11.6253 3.19123 11.7424 3.30827L17.9924 9.55827C18.1095 9.67546 18.1752 9.83431 18.1752 9.99994C18.1752 10.1656 18.1095 10.3244 17.9924 10.4416L11.7424 16.6916C11.6852 16.753 11.6162 16.8023 11.5396 16.8364C11.4629 16.8706 11.3801 16.8889 11.2962 16.8904C11.2123 16.8919 11.1289 16.8765 11.0511 16.845C10.9733 16.8136 10.9026 16.7668 10.8433 16.7075C10.7839 16.6481 10.7371 16.5774 10.7057 16.4996C10.6742 16.4218 10.6588 16.3384 10.6603 16.2545C10.6618 16.1706 10.6801 16.0878 10.7143 16.0112C10.7485 15.9345 10.7977 15.8655 10.8591 15.8083L16.0424 10.6249H2.55078C2.38502 10.6249 2.22605 10.5591 2.10884 10.4419C1.99163 10.3247 1.92578 10.1657 1.92578 9.99994C1.92578 9.83418 1.99163 9.67521 2.10884 9.558C2.22605 9.44079 2.38502 9.37494 2.55078 9.37494H16.0424L10.8591 4.19161C10.7421 4.07442 10.6763 3.91556 10.6763 3.74994C10.6763 3.58431 10.7421 3.42546 10.8591 3.30827Z" fill="black"/>
</svg>
