<svg width="22" height="23" viewBox="0 0 22 23" fill="none" xmlns="http://www.w3.org/2000/svg">
<path d="M10.8255 2.57391C5.91235 2.57391 1.92969 6.55658 1.92969 11.4697C1.92969 15.7531 4.99431 19.3772 9.04725 20.1921L9.04635 14.1385H7.26719V11.4697H9.04635V8.801C9.05614 7.34742 10.2037 6.14915 11.7151 6.13225H14.3839V8.801C14.3839 8.801 12.868 8.801 12.6047 8.801C12.143 8.80011 11.7151 9.18352 11.7151 9.69058V11.4697H14.3839L13.4943 14.1385H11.7151L11.7213 20.3318C16.1977 19.8674 19.7214 16.0689 19.7214 11.4697C19.7214 6.55658 15.7387 2.57391 10.8255 2.57391Z" fill="white"/>
</svg>
