<svg width="22" height="23" viewBox="0 0 22 23" fill="none" xmlns="http://www.w3.org/2000/svg">
<g clip-path="url(#clip0_5729_27641)">
<path d="M10.8607 2.57483C13.2777 2.57483 13.5792 2.58372 14.5275 2.6282C15.4749 2.67268 16.1199 2.82124 16.6874 3.04186C17.2746 3.26781 17.7692 3.57383 18.2638 4.06755C18.7161 4.51225 19.0662 5.05017 19.2895 5.64389C19.5092 6.21056 19.6587 6.85639 19.7031 7.8038C19.7449 8.7521 19.7565 9.05367 19.7565 11.4707C19.7565 13.8877 19.7476 14.1892 19.7031 15.1375C19.6587 16.0849 19.5092 16.7299 19.2895 17.2974C19.0668 17.8915 18.7167 18.4295 18.2638 18.8738C17.819 19.326 17.2811 19.676 16.6874 19.8995C16.1208 20.1192 15.4749 20.2686 14.5275 20.3131C13.5792 20.3549 13.2777 20.3665 10.8607 20.3665C8.44368 20.3665 8.14211 20.3576 7.19381 20.3131C6.24641 20.2686 5.60146 20.1192 5.03391 19.8995C4.43995 19.6766 3.90194 19.3265 3.45756 18.8738C3.00513 18.4292 2.6551 17.8912 2.43188 17.2974C2.21126 16.7308 2.0627 16.0849 2.01822 15.1375C1.97641 14.1892 1.96484 13.8877 1.96484 11.4707C1.96484 9.05367 1.97374 8.7521 2.01822 7.8038C2.0627 6.8555 2.21126 6.21145 2.43188 5.64389C2.65448 5.04981 3.00459 4.51174 3.45756 4.06755C3.90206 3.61496 4.44005 3.26491 5.03391 3.04186C5.60146 2.82124 6.24552 2.67268 7.19381 2.6282C8.14211 2.58639 8.44368 2.57483 10.8607 2.57483ZM10.8607 7.02275C9.68102 7.02275 8.54967 7.49136 7.71553 8.32551C6.88138 9.15966 6.41276 10.291 6.41276 11.4707C6.41276 12.6503 6.88138 13.7817 7.71553 14.6158C8.54967 15.45 9.68102 15.9186 10.8607 15.9186C12.0403 15.9186 13.1717 15.45 14.0058 14.6158C14.84 13.7817 15.3086 12.6503 15.3086 11.4707C15.3086 10.291 14.84 9.15966 14.0058 8.32551C13.1717 7.49136 12.0403 7.02275 10.8607 7.02275ZM16.643 6.80035C16.643 6.50543 16.5258 6.2226 16.3173 6.01406C16.1087 5.80553 15.8259 5.68837 15.531 5.68837C15.2361 5.68837 14.9532 5.80553 14.7447 6.01406C14.5362 6.2226 14.419 6.50543 14.419 6.80035C14.419 7.09527 14.5362 7.3781 14.7447 7.58664C14.9532 7.79518 15.2361 7.91233 15.531 7.91233C15.8259 7.91233 16.1087 7.79518 16.3173 7.58664C16.5258 7.3781 16.643 7.09527 16.643 6.80035ZM10.8607 8.80191C11.5685 8.80191 12.2473 9.08308 12.7478 9.58357C13.2483 10.0841 13.5294 10.7629 13.5294 11.4707C13.5294 12.1785 13.2483 12.8573 12.7478 13.3578C12.2473 13.8582 11.5685 14.1394 10.8607 14.1394C10.1529 14.1394 9.47407 13.8582 8.97359 13.3578C8.4731 12.8573 8.19193 12.1785 8.19193 11.4707C8.19193 10.7629 8.4731 10.0841 8.97359 9.58357C9.47407 9.08308 10.1529 8.80191 10.8607 8.80191Z" fill="white"/>
</g>
<defs>
<clipPath id="clip0_5729_27641">
<rect width="21.35" height="21.35" fill="white" transform="translate(0.1875 0.795654)"/>
</clipPath>
</defs>
</svg>
