<svg width="22" height="23" viewBox="0 0 22 23" fill="none" xmlns="http://www.w3.org/2000/svg">
<path d="M15.48 2.57483H6.33508C3.951 2.57483 2.01172 4.51412 2.01172 6.8982V16.0431C2.01172 18.4272 3.951 20.3665 6.33508 20.3665H15.48C17.8641 20.3665 19.8034 18.4272 19.8034 16.0431V6.8982C19.8034 4.51412 17.8641 2.57483 15.48 2.57483ZM8.16765 8.95314C7.66948 8.95314 7.25138 8.54394 7.25138 8.04577C7.25138 7.53871 7.66058 7.1295 8.15874 7.1295H8.16765C8.67471 7.1295 9.08392 7.53871 9.08392 8.04577C9.08392 8.54394 8.67471 8.95314 8.16765 8.95314ZM8.81703 10.332V14.8956C8.81703 15.2692 8.52346 15.5627 8.14984 15.5627C7.78511 15.5627 7.48265 15.2692 7.48265 14.8956V10.332C7.48265 9.95837 7.78511 9.66481 8.14984 9.66481C8.52346 9.66481 8.81703 9.95837 8.81703 10.332ZM14.3325 14.8956C14.3325 15.2692 14.03 15.5627 13.6653 15.5627C13.2916 15.5627 12.9981 15.2692 12.9981 14.8956V12.8139C12.9981 12.2535 12.8824 12.1556 12.7935 12.0756C12.6867 11.9777 12.4999 11.9155 12.2686 11.9066C12.0818 11.9155 11.895 11.9777 11.7882 12.0756C11.6993 12.1556 11.5836 12.2535 11.5836 12.8139V14.8956C11.5836 15.2692 11.2901 15.5627 10.9165 15.5627C10.5517 15.5627 10.2493 15.2692 10.2493 14.8956V12.8139C10.2493 12.0044 10.445 11.4885 10.8986 11.0792C11.2456 10.7679 11.7171 10.5989 12.2686 10.5722C12.8646 10.5989 13.3361 10.7679 13.692 11.0792C14.1367 11.4885 14.3325 12.0044 14.3325 12.8139V14.8956Z" fill="white"/>
</svg>
