<svg width="25" height="27" viewBox="0 0 25 27" fill="none" xmlns="http://www.w3.org/2000/svg">
<path d="M1.34589 2.05322C1.06494 2.33997 0.902344 2.78642 0.902344 3.36459V23.9875C0.902344 24.5657 1.06494 25.0121 1.34589 25.2989L1.41524 25.3618L13.2679 13.8101V13.5373L1.41524 1.98561L1.34589 2.05322Z" fill="white"/>
<path d="M18.6457 17.6626L14.6992 13.8101V13.5373L18.6505 9.6848L18.739 9.73492L23.4184 12.3309C24.7538 13.0676 24.7538 14.2798 23.4184 15.0212L18.739 17.6125L18.6457 17.6626Z" fill="white"/>
<path d="M18.0243 18.3298L13.9845 14.391L2.0625 26.0162C2.50605 26.4708 3.22936 26.5256 4.0519 26.0709L18.0243 18.3298Z" fill="white"/>
<path d="M18.0243 9.01777L4.0519 1.2766C3.22936 0.826658 2.50605 0.881443 2.0625 1.33605L13.9845 12.9565L18.0243 9.01777Z" fill="white"/>
</svg>
