<svg width="475" height="151" viewBox="0 0 475 151" fill="none" xmlns="http://www.w3.org/2000/svg">
<g clip-path="url(#clip0_5729_27682)">
<path d="M26.3086 109.935C24.3657 109.984 22.7714 109.636 21.526 108.888C20.2307 108.141 19.2343 107.045 18.5368 105.6C17.7895 104.205 17.3162 102.487 17.117 100.444C16.9177 98.4513 16.9177 96.2593 17.117 93.868C17.3661 92.0247 17.8144 90.1066 18.4621 88.1139C19.0101 86.42 19.857 84.5518 21.0029 82.5092C22.0989 80.4666 23.5935 78.4739 25.4866 76.5309C25.8851 76.6306 26.209 76.7551 26.4581 76.9046C26.7072 77.0042 26.9064 77.1287 27.0559 77.2782C27.2053 77.4775 27.305 77.6518 27.3548 77.8013C27.4544 78.3493 27.305 78.9721 26.9064 79.6695C26.5079 80.367 26.1093 81.1143 25.7108 81.9114C24.6148 84.2031 23.7927 86.3702 23.2447 88.4128C22.6967 90.4554 22.348 92.3485 22.1985 94.0922C22.0989 95.5867 22.1238 96.9319 22.2733 98.1275C22.3729 99.373 22.5473 100.419 22.7964 101.266C23.0454 102.163 23.3195 102.835 23.6184 103.284C23.9173 103.782 24.1913 104.031 24.4404 104.031C24.6895 104.031 24.9386 103.857 25.1877 103.508C25.4866 103.159 25.7606 102.736 26.0097 102.238C26.3086 101.739 26.6573 100.967 27.0559 99.921C27.4544 98.9246 27.8779 97.7539 28.3263 96.4088C28.7747 95.0636 29.1981 93.6189 29.5967 92.0745C30.045 90.4803 30.4436 88.8861 30.7923 87.2919C31.4898 84.1034 32.2371 80.5164 33.0342 76.5309C33.8313 72.4956 35.002 68.2858 36.5464 63.9018C37.0446 62.0584 37.6674 60.0408 38.4147 57.8487C39.0125 55.9556 39.7598 53.7636 40.6565 51.2726C41.6031 48.7318 42.6742 45.9918 43.8699 43.0524C43.8699 42.8033 44.0691 42.5792 44.4677 42.3799C44.9161 42.1308 45.4143 41.8817 45.9623 41.6326C46.5601 41.3835 47.2327 41.1344 47.9799 40.8853C48.9763 40.5366 49.7485 40.3373 50.2965 40.2875C50.8944 40.2377 51.3427 40.3124 51.6416 40.5117C51.9406 40.7109 52.1398 40.9849 52.2395 41.3337C52.3391 41.6326 52.3889 41.9813 52.3889 42.3799C52.4886 44.0239 52.5384 45.5683 52.5384 47.0131C52.5882 48.4578 52.638 49.7282 52.6879 50.8242C52.7377 52.1195 52.7626 53.2903 52.7626 54.3365C52.8124 55.7314 52.7377 57.5996 52.5384 59.9411C52.3391 62.2328 52.1149 64.649 51.8658 67.1898C51.6666 69.7306 51.4673 72.2216 51.268 74.6627C51.1185 77.054 51.0936 79.0468 51.1933 80.641C51.1933 81.4879 51.2182 82.285 51.268 83.0323C51.3676 83.7298 51.4673 84.4273 51.5669 85.1247C52.2146 83.3312 52.9369 81.463 53.7341 79.5201C54.5312 77.5273 55.3283 75.6342 56.1254 73.8407C56.9225 71.9974 57.6698 70.3035 58.3672 68.7591C59.0647 67.1649 59.6127 65.8447 60.0113 64.7985C60.6091 63.4036 61.4062 61.635 62.4026 59.4928C63.399 57.3505 64.3954 55.2083 65.3917 53.0661C66.4379 50.9239 67.3845 48.956 68.2314 47.1625C69.1282 45.369 69.7758 44.1236 70.1744 43.4261C70.4733 42.9279 70.9715 42.4795 71.669 42.081C72.4162 41.6824 73.1884 41.3337 73.9855 41.0348C74.8325 40.7358 75.6047 40.5366 76.3021 40.4369C77.0494 40.2875 77.5476 40.2626 77.7967 40.3622C78.4444 40.5117 78.8927 40.7109 79.1418 40.96C79.4407 41.2091 79.6151 41.3835 79.6649 41.4831C79.7646 41.6824 79.8393 42.0311 79.8891 42.5293C79.9389 42.9777 79.914 43.7001 79.8144 44.6965C79.7147 45.8921 79.4158 47.7105 78.9176 50.1517C78.4693 52.5928 77.8963 55.3827 77.1989 58.5213C76.5512 61.6101 75.8289 64.9231 75.0317 68.4602C74.2845 71.9974 73.5621 75.4847 72.8646 78.9222C72.1671 82.3099 71.5444 85.4984 70.9964 88.4875C70.4982 91.4767 70.1744 93.9925 70.0249 96.0351C69.9253 98.3268 70.0747 100.344 70.4733 102.088C70.6227 102.835 70.8469 103.558 71.1459 104.255C71.4448 104.953 71.8433 105.551 72.3415 106.049C72.8397 106.597 73.4375 106.995 74.135 107.244C74.8325 107.494 75.6545 107.568 76.601 107.469C75.3556 108.316 74.135 108.938 72.9393 109.337C71.7437 109.735 70.5729 109.935 69.4271 109.935C68.1816 109.984 67.0856 109.785 66.139 109.337C65.1925 108.938 64.3954 108.34 63.7477 107.543C63.1001 106.796 62.6268 105.874 62.3279 104.778C62.0289 103.732 61.9293 102.561 62.0289 101.266C62.1286 100.07 62.4524 98.1026 63.0004 95.3626C63.5484 92.6225 64.1961 89.5337 64.9434 86.0962C65.7405 82.6089 66.5874 78.997 67.4841 75.2605C68.4307 71.4743 69.3025 67.9371 70.0996 64.649C70.9466 61.3112 71.669 58.4466 72.2668 56.0552C72.8646 53.6639 73.2383 52.0946 73.3877 51.3473C73.4874 50.7495 73.5621 50.2015 73.6119 49.7033C73.7115 49.1553 73.8112 48.682 73.9108 48.2835C73.4126 49.2798 72.7899 50.4755 72.0426 51.8704C71.3451 53.2654 70.5978 54.7599 69.8007 56.3542C69.0036 57.9484 68.1816 59.6173 67.3347 61.361C66.5376 63.0548 65.7654 64.6989 65.0181 66.2931C63.7726 68.8837 62.552 71.549 61.3564 74.2891C60.1607 76.9793 59.0896 79.545 58.143 81.9861C57.1965 84.4273 56.3994 86.6193 55.7517 88.5622C55.1539 90.5052 54.8052 91.9998 54.7055 93.046V94.0922C54.7055 94.3911 54.7055 94.7398 54.7055 95.1384C54.7553 95.5369 54.8301 95.9106 54.9297 96.2593L51.9406 98.5759C51.4922 98.7254 51.0936 98.8499 50.7449 98.9495C50.446 99.0492 50.1471 99.099 49.8482 99.099C48.7023 99.099 47.8305 98.5012 47.2327 97.3055C46.6348 96.2095 46.0868 94.0673 45.5886 90.8788C45.0904 87.6904 44.941 83.7796 45.1402 79.1464C45.2399 76.8547 45.3893 74.5381 45.5886 72.1966C45.8377 69.8551 46.0619 67.6133 46.2612 65.4711C46.5103 63.3288 46.7345 61.3361 46.9337 59.4928C47.133 57.5996 47.2327 55.9805 47.2327 54.6354C47.2825 53.639 47.2576 52.7423 47.1579 51.9452C47.0583 51.0982 46.9586 50.326 46.859 49.6286C46.4106 50.7744 45.9124 52.3437 45.3644 54.3365C44.8164 56.2794 44.2435 58.4466 43.6457 60.8379C43.0478 63.2292 42.4251 65.7451 41.7775 68.3855C41.1796 71.0259 40.5818 73.5667 39.984 76.0078C39.436 78.449 38.9129 80.7157 38.4147 82.8081C37.9165 84.8507 37.5179 86.4947 37.219 87.7402C36.7208 89.733 36.2226 91.9998 35.7244 94.5405C35.2262 97.0813 34.6035 99.4726 33.8562 101.715C33.1089 104.006 32.1374 105.924 30.9418 107.469C29.7461 109.063 28.2017 109.885 26.3086 109.935ZM102.831 84.0785C102.333 85.9716 101.66 87.7402 100.813 89.3843C99.9662 91.0283 98.9449 92.4481 97.7493 93.6438C96.6034 94.8395 95.2832 95.7611 93.7887 96.4088C92.3439 97.1062 90.7497 97.455 89.006 97.455C86.9634 97.455 85.3443 97.0066 84.1487 96.1098C83.0028 95.2629 82.131 94.1918 81.5331 92.8965C80.9851 91.6012 80.6613 90.1814 80.5617 88.637C80.4122 87.0926 80.3375 85.6478 80.3375 84.3027C80.3375 83.3561 80.462 82.3099 80.7111 81.1641C80.9104 80.0183 81.2093 78.8475 81.6079 77.6518C82.0064 76.4562 82.5046 75.2605 83.1024 74.0649C83.7501 72.8692 84.4974 71.7732 85.3443 70.7768C85.6432 69.9299 86.0916 69.1826 86.6894 68.5349C87.3371 67.8873 88.0595 67.3642 88.8566 66.9656C89.7035 66.5173 90.6002 66.1934 91.5468 65.9942C92.4934 65.7451 93.415 65.6205 94.3118 65.6205C94.4612 65.6205 94.5858 65.6454 94.6854 65.6952C94.8349 65.7451 94.9843 65.7949 95.1338 65.8447C95.7814 65.8945 96.5785 66.1436 97.5251 66.592C98.5215 67.0404 99.468 67.7129 100.365 68.6097C101.311 69.5064 102.108 70.6523 102.756 72.0472C103.404 73.3923 103.728 75.0363 103.728 76.9793C103.728 77.3778 103.703 77.876 103.653 78.4739C103.603 79.0219 103.553 79.4952 103.503 79.8937C104.649 79.4453 105.845 78.8973 107.09 78.2497C108.336 77.602 109.532 76.9295 110.677 76.232C111.873 75.4847 112.969 74.7374 113.965 73.9901C114.962 73.2429 115.759 72.5703 116.357 71.9725C116.855 71.5241 117.278 71.275 117.627 71.2252C117.976 71.1754 118.225 71.275 118.374 71.5241C118.524 71.7732 118.549 72.1219 118.449 72.5703C118.35 73.0187 118.075 73.5169 117.627 74.0649C117.378 74.3638 116.73 74.9616 115.684 75.8584C114.688 76.7551 113.492 77.7266 112.097 78.7728C110.702 79.819 109.183 80.8403 107.539 81.8367C105.895 82.833 104.325 83.5803 102.831 84.0785ZM90.2017 72.7197C90.0522 73.1681 89.9775 73.6414 89.9775 74.1396C89.9775 74.9367 90.0273 75.7836 90.1269 76.6804C90.2266 77.5273 90.4757 78.2995 90.8742 78.997C91.2728 79.6944 91.8955 80.2923 92.7425 80.7905C93.6392 81.2388 94.8598 81.463 96.4042 81.463C96.6533 81.463 96.9024 81.463 97.1515 81.463C97.4005 81.4132 97.6496 81.3634 97.8987 81.3136C98.0482 80.6659 98.1727 80.093 98.2724 79.5948C98.4218 79.0468 98.4966 78.5735 98.4966 78.1749C98.5962 77.2284 98.5962 76.2569 98.4966 75.2605C98.3969 74.2641 98.1977 73.3674 97.8987 72.5703C97.6496 71.7234 97.3009 71.0508 96.8525 70.5526C96.454 70.0046 95.9558 69.7306 95.358 69.7306C94.4114 69.7306 93.4897 70.0046 92.593 70.5526C91.7461 71.0508 90.949 71.7732 90.2017 72.7197ZM85.419 85.872C85.419 86.7688 85.4689 87.6655 85.5685 88.5622C85.6681 89.4092 85.8674 90.1814 86.1663 90.8788C86.4652 91.5265 86.8638 92.0745 87.362 92.5229C87.8602 92.9214 88.5078 93.1207 89.3049 93.1207C90.2017 93.1207 91.0237 92.9214 91.771 92.5229C92.5183 92.0745 93.1908 91.5265 93.7887 90.8788C94.3865 90.1814 94.9096 89.4092 95.358 88.5622C95.8562 87.6655 96.2796 86.7438 96.6284 85.7973C96.2796 85.8471 95.9309 85.8969 95.5821 85.9467C95.2832 85.9467 94.9345 85.9467 94.5359 85.9467C92.6428 85.9467 90.9988 85.3987 89.6038 84.3027C88.2587 83.1569 87.2125 81.7121 86.4652 79.9684C86.1663 81.0146 85.9172 82.0359 85.718 83.0323C85.5187 84.0287 85.419 84.9753 85.419 85.872ZM133.021 97.8286C131.875 97.8286 130.879 97.6044 130.032 97.156C129.235 96.7575 128.587 96.2095 128.089 95.512C127.591 94.8145 127.267 94.0174 127.118 93.1207C126.968 92.1741 127.018 91.1777 127.267 90.1315C127.417 89.4341 127.666 88.5124 128.014 87.3666C128.363 86.1709 128.712 84.9005 129.061 83.5554C129.459 82.1605 129.808 80.7905 130.107 79.4453C130.456 78.0504 130.68 76.8049 130.779 75.7089C130.879 74.5631 130.829 73.6414 130.63 72.9439C130.431 72.1966 130.007 71.823 129.36 71.823C128.562 71.823 127.74 72.097 126.893 72.645C126.047 73.1432 125.175 73.8407 124.278 74.7374C123.431 75.6342 122.559 76.6804 121.662 77.876C120.816 79.0219 119.969 80.2175 119.122 81.463C118.673 83.1569 118.3 84.6514 118.001 85.9467C117.702 87.1922 117.428 88.3381 117.179 89.3843C116.979 90.3806 116.78 91.2774 116.581 92.0745C116.382 92.8218 116.207 93.5442 116.058 94.2416C115.908 94.7398 115.46 95.238 114.713 95.7362C113.965 96.1846 113.168 96.5582 112.321 96.8571C111.474 97.156 110.752 97.3055 110.154 97.3055C109.507 97.3055 109.233 97.0813 109.332 96.6329C109.382 96.334 109.556 95.6615 109.855 94.6153C110.104 93.5691 110.428 92.3485 110.827 90.9536C111.176 89.5088 111.549 87.9893 111.948 86.3951C112.346 84.8009 112.72 83.2814 113.069 81.8367C113.318 80.6908 113.592 79.4204 113.891 78.0255C114.14 76.8298 114.439 75.4349 114.787 73.8407C115.186 72.2465 115.634 70.5028 116.133 68.6097C116.481 68.3108 116.83 68.0866 117.179 67.9371C117.577 67.7378 117.976 67.5884 118.374 67.4887C118.773 67.3393 119.196 67.2396 119.645 67.1898C120.043 67.1898 120.442 67.2147 120.84 67.2646C121.189 67.3144 121.538 67.414 121.887 67.5635C122.285 67.6631 122.634 67.8375 122.933 68.0866C122.783 68.4353 122.609 68.9335 122.41 69.5811C122.21 70.179 122.011 70.8266 121.812 71.5241C121.613 72.3212 121.364 73.1432 121.065 73.9901C121.712 73.0934 122.435 72.1966 123.232 71.2999C124.079 70.3533 124.975 69.5064 125.922 68.7591C126.918 68.0118 127.965 67.414 129.061 66.9656C130.157 66.4674 131.278 66.2183 132.423 66.2183C133.37 66.2183 134.217 66.4924 134.964 67.0404C135.711 67.5884 136.284 68.3606 136.683 69.357C137.131 70.3035 137.38 71.4494 137.43 72.7945C137.53 74.1396 137.356 75.6093 136.907 77.2035L136.085 80.4915C135.836 81.5377 135.512 82.7832 135.114 84.228C134.765 85.6229 134.317 87.1673 133.769 88.8612C133.47 89.9572 133.345 90.9037 133.395 91.7008C133.495 92.498 133.993 92.8965 134.889 92.8965C135.786 92.8965 136.907 92.3485 138.252 91.2525C139.647 90.1565 141.042 88.8362 142.437 87.2919C143.832 85.7475 145.152 84.1782 146.398 82.5839C147.643 80.9399 148.59 79.6197 149.237 78.6233C149.686 77.9757 150.109 77.5522 150.508 77.3529C150.906 77.1537 151.205 77.1287 151.405 77.2782C151.654 77.4277 151.778 77.7764 151.778 78.3244C151.778 78.8226 151.579 79.4702 151.18 80.2674C150.832 80.9648 150.284 81.8865 149.536 83.0323C148.839 84.1782 147.992 85.3987 146.996 86.694C145.999 87.9893 144.928 89.3095 143.782 90.6546C142.636 91.9499 141.441 93.1456 140.195 94.2416C138.95 95.2878 137.704 96.1348 136.459 96.7824C135.263 97.4799 134.117 97.8286 133.021 97.8286ZM162.614 51.9452C162.464 52.4932 162.165 53.0412 161.717 53.5892C161.319 54.0874 160.845 54.5108 160.297 54.8596C159.799 55.1585 159.276 55.3578 158.728 55.4574C158.18 55.557 157.732 55.4574 157.383 55.1585C156.337 54.3614 155.789 53.5145 155.739 52.6177C155.689 51.6712 155.913 50.7993 156.411 50.0022C156.91 49.1553 157.532 48.4578 158.28 47.9098C159.027 47.312 159.675 46.9632 160.223 46.8636C160.771 46.764 161.219 46.8885 161.568 47.2372C161.966 47.5362 162.265 47.9596 162.464 48.5076C162.664 49.0058 162.763 49.5787 162.763 50.2264C162.813 50.874 162.763 51.447 162.614 51.9452ZM152.301 67.8624C152.55 67.5635 153.024 67.3144 153.721 67.1151C154.419 66.9158 155.141 66.7664 155.888 66.6667C156.636 66.5173 157.308 66.4425 157.906 66.4425C158.554 66.3927 158.927 66.3927 159.027 66.4425C159.077 66.4924 158.952 67.0155 158.653 68.0118C158.354 69.0082 157.981 70.179 157.532 71.5241C157.084 72.8692 156.611 74.2641 156.112 75.7089C155.614 77.1038 155.241 78.2497 154.991 79.1464C154.742 80.0432 154.443 81.0645 154.095 82.2103C153.746 83.3063 153.422 84.4023 153.123 85.4984C152.874 86.5446 152.7 87.5409 152.6 88.4875C152.501 89.4341 152.575 90.1565 152.824 90.6546C153.073 91.2525 153.347 91.6759 153.646 91.925C153.945 92.1243 154.269 92.224 154.618 92.224C155.614 92.224 156.86 91.6759 158.354 90.5799C159.899 89.4839 161.443 88.1886 162.987 86.694C164.582 85.1496 166.051 83.6052 167.396 82.0608C168.742 80.4666 169.738 79.1962 170.386 78.2497C170.784 77.7515 171.183 77.4277 171.581 77.2782C172.03 77.1287 172.378 77.1537 172.627 77.3529C172.926 77.5522 173.076 77.876 173.076 78.3244C173.126 78.7728 172.976 79.2959 172.627 79.8937C171.83 81.2886 170.66 82.9576 169.115 84.9005C167.571 86.7937 165.927 88.637 164.183 90.4305C162.439 92.1741 160.721 93.6687 159.027 94.9142C157.383 96.1597 156.038 96.8073 154.991 96.8571C154.145 96.907 153.298 96.7575 152.451 96.4088C151.654 96.1098 150.906 95.6864 150.209 95.1384C149.561 94.5405 149.013 93.868 148.565 93.1207C148.116 92.3236 147.867 91.5016 147.818 90.6546C147.668 89.4092 147.668 87.7153 147.818 85.5731C147.967 83.381 148.241 81.1641 148.64 78.9222C149.038 76.6306 149.536 74.4634 150.134 72.4208C150.782 70.3782 151.504 68.8588 152.301 67.8624Z" fill="white" fill-opacity="0.6"/>
<path d="M222.803 77.04C222.504 78.2758 222.334 79.5583 222.308 80.8716C222.145 89.025 227.585 95.765 235.093 97.557C236.485 97.8889 237.946 98.051 239.458 98.0209L261.331 97.5841C270.995 97.391 278.986 89.4001 279.179 79.7359C279.372 70.0714 271.694 62.3935 262.03 62.5863L257.212 62.6826" stroke="white" stroke-opacity="0.6" stroke-width="8.01654" stroke-linecap="round"/>
<path d="M209.735 96.5002L204.916 96.5961C195.251 96.7892 187.573 89.1111 187.766 79.4467C187.959 69.7822 195.95 61.7915 205.614 61.5985L227.488 61.1618C237.152 60.9688 244.83 68.647 244.637 78.3113C244.611 79.6242 244.441 80.9063 244.143 82.1418" stroke="white" stroke-opacity="0.6" stroke-width="8.01654" stroke-linecap="round"/>
<path d="M250.001 122.607L243.122 115.729M216.913 122.607L223.792 115.729" stroke="white" stroke-opacity="0.6" stroke-width="8.01654" stroke-linecap="round" stroke-linejoin="round"/>
<path d="M216.913 36.5793L223.792 43.4579M250.001 36.5793L243.122 43.4579" stroke="white" stroke-opacity="0.6" stroke-width="8.01654" stroke-linecap="round" stroke-linejoin="round"/>
<path d="M308.336 73.8913H332.971V81.656H308.336V73.8913ZM309.113 100.574H299.936V51.1619H336.007V58.856H309.113V100.574ZM343.345 100.574V62.8795H351.745V73.256L350.756 70.2207C351.886 67.6796 353.65 65.7501 356.05 64.4325C358.497 63.1148 361.533 62.456 365.156 62.456V70.856C364.78 70.7619 364.427 70.7148 364.097 70.7148C363.768 70.6678 363.439 70.6443 363.109 70.6443C359.768 70.6443 357.109 71.6325 355.133 73.609C353.156 75.5384 352.168 78.4325 352.168 82.2913V100.574H343.345ZM393.177 100.574V92.9501L392.682 91.3266V77.9854C392.682 75.3972 391.906 73.3972 390.353 71.9854C388.8 70.5266 386.447 69.7972 383.294 69.7972C381.177 69.7972 379.082 70.1266 377.012 70.7854C374.988 71.4443 373.271 72.3619 371.859 73.5384L368.4 67.1148C370.424 65.5619 372.824 64.409 375.6 63.656C378.424 62.856 381.341 62.456 384.353 62.456C389.812 62.456 394.024 63.7737 396.988 66.409C400 68.9972 401.506 73.0207 401.506 78.4796V100.574H393.177ZM381.318 101.068C378.494 101.068 376.024 100.597 373.906 99.656C371.788 98.6678 370.141 97.3266 368.965 95.6325C367.835 93.8913 367.271 91.9384 367.271 89.7737C367.271 87.656 367.765 85.7501 368.753 84.056C369.788 82.3619 371.459 81.0207 373.765 80.0325C376.071 79.0443 379.129 78.5501 382.941 78.5501H393.882V84.409H383.577C380.565 84.409 378.541 84.9031 377.506 85.8913C376.471 86.8325 375.953 88.009 375.953 89.4207C375.953 91.0207 376.588 92.2913 377.859 93.2325C379.129 94.1737 380.894 94.6443 383.153 94.6443C385.318 94.6443 387.247 94.1501 388.941 93.1619C390.682 92.1737 391.929 90.7148 392.682 88.7854L394.165 94.0796C393.318 96.2913 391.788 98.009 389.577 99.2325C387.412 100.456 384.659 101.068 381.318 101.068ZM433.724 101.068C430.665 101.068 427.865 100.362 425.324 98.9501C422.83 97.5384 420.83 95.4207 419.324 92.5972C417.865 89.7266 417.136 86.1031 417.136 81.7266C417.136 77.3031 417.842 73.6796 419.253 70.856C420.712 68.0325 422.689 65.9384 425.183 64.5737C427.677 63.1619 430.524 62.456 433.724 62.456C437.442 62.456 440.712 63.256 443.536 64.856C446.406 66.456 448.665 68.6913 450.312 71.5619C452.006 74.4325 452.853 77.8207 452.853 81.7266C452.853 85.6325 452.006 89.0443 450.312 91.9619C448.665 94.8325 446.406 97.0678 443.536 98.6678C440.712 100.268 437.442 101.068 433.724 101.068ZM412.83 114.268V62.8795H421.23V71.7737L420.947 81.7972L421.653 91.8207V114.268H412.83ZM432.736 93.5148C434.853 93.5148 436.736 93.0443 438.383 92.1031C440.077 91.1619 441.418 89.7972 442.406 88.009C443.395 86.2207 443.889 84.1266 443.889 81.7266C443.889 79.2796 443.395 77.1854 442.406 75.4443C441.418 73.656 440.077 72.2913 438.383 71.3501C436.736 70.409 434.853 69.9384 432.736 69.9384C430.618 69.9384 428.712 70.409 427.018 71.3501C425.324 72.2913 423.983 73.656 422.995 75.4443C422.006 77.1854 421.512 79.2796 421.512 81.7266C421.512 84.1266 422.006 86.2207 422.995 88.009C423.983 89.7972 425.324 91.1619 427.018 92.1031C428.712 93.0443 430.618 93.5148 432.736 93.5148Z" fill="white" fill-opacity="0.6"/>
</g>
<defs>
<clipPath id="clip0_5729_27682">
<rect width="474.265" height="150" fill="white" transform="translate(0.332031 0.181091)"/>
</clipPath>
</defs>
</svg>
