<svg width="33" height="30" viewBox="0 0 33 30" fill="none" xmlns="http://www.w3.org/2000/svg">
<path d="M14.4942 15.372C14.4345 15.6191 14.4005 15.8756 14.3952 16.1383C14.3627 17.769 15.4506 19.117 16.9523 19.4754C17.2305 19.5417 17.5229 19.5742 17.8251 19.5681L22.1998 19.4808C24.1326 19.4422 25.7308 17.844 25.7695 15.9111C25.808 13.9782 24.2724 12.4427 22.3395 12.4812L21.376 12.5005" stroke="#0A55D0" stroke-width="1.60331" stroke-linecap="round"/>
<path d="M11.8806 19.2636L10.9167 19.2828C8.98382 19.3214 7.44819 17.7858 7.4868 15.8529C7.5254 13.92 9.12353 12.3218 11.0564 12.2832L15.4312 12.1959C17.364 12.1573 18.8997 13.6929 18.861 15.6258C18.8559 15.8884 18.8218 16.1448 18.7621 16.3919" stroke="#0A55D0" stroke-width="1.60331" stroke-linecap="round"/>
<path d="M19.9338 24.485L18.558 23.1093M13.3162 24.485L14.692 23.1093" stroke="#0A55D0" stroke-width="1.60331" stroke-linecap="round" stroke-linejoin="round"/>
<path d="M13.3162 7.27947L14.6919 8.65518M19.9338 7.27947L18.5581 8.65518" stroke="#0A55D0" stroke-width="1.60331" stroke-linecap="round" stroke-linejoin="round"/>
</svg>
