<svg width="95" height="30" viewBox="0 0 95 30" fill="none" xmlns="http://www.w3.org/2000/svg">
<g clip-path="url(#clip0_5470_8787)">
<path d="M5.19531 21.5507C4.80673 21.5607 4.48788 21.4909 4.23879 21.3415C3.97973 21.192 3.78045 20.9728 3.64096 20.6839C3.4915 20.4049 3.39684 20.0611 3.35699 19.6526C3.31713 19.2541 3.31713 18.8156 3.35699 18.3374C3.40681 17.9687 3.49648 17.5851 3.62601 17.1866C3.73561 16.8478 3.905 16.4741 4.13417 16.0656C4.35337 15.6571 4.65229 15.2586 5.03091 14.87C5.11062 14.8899 5.17539 14.9148 5.22521 14.9447C5.27503 14.9646 5.31488 14.9895 5.34477 15.0194C5.37466 15.0593 5.39459 15.0942 5.40456 15.124C5.42448 15.2336 5.39459 15.3582 5.31488 15.4977C5.23517 15.6372 5.15546 15.7866 5.07575 15.9461C4.85654 16.4044 4.69214 16.8378 4.58254 17.2463C4.47294 17.6549 4.40319 18.0335 4.3733 18.3822C4.35337 18.6811 4.35835 18.9502 4.38824 19.1893C4.40817 19.4384 4.44305 19.6476 4.49286 19.817C4.54268 19.9964 4.59748 20.1309 4.65727 20.2205C4.71705 20.3202 4.77185 20.37 4.82167 20.37C4.87149 20.37 4.92131 20.3351 4.97113 20.2654C5.03091 20.1956 5.08571 20.1109 5.13553 20.0113C5.19531 19.9117 5.26506 19.7572 5.34477 19.548C5.42448 19.3487 5.50918 19.1146 5.59885 18.8455C5.68852 18.5765 5.77322 18.2876 5.85293 17.9787C5.9426 17.6598 6.02231 17.341 6.09206 17.0222C6.23155 16.3845 6.38101 15.6671 6.54043 14.87C6.69985 14.0629 6.934 13.221 7.24288 12.3441C7.34252 11.9755 7.46707 11.5719 7.61653 11.1335C7.73609 10.7549 7.88555 10.3165 8.0649 9.8183C8.25421 9.31015 8.46843 8.76214 8.70757 8.17427C8.70757 8.12445 8.74742 8.07961 8.82713 8.03976C8.91681 7.98994 9.01644 7.94012 9.12605 7.8903C9.24561 7.84048 9.38012 7.79066 9.52958 7.74084C9.72886 7.6711 9.8833 7.63124 9.9929 7.62128C10.1125 7.61131 10.2021 7.62626 10.2619 7.66611C10.3217 7.70597 10.3616 7.76077 10.3815 7.83052C10.4014 7.8903 10.4114 7.96005 10.4114 8.03976C10.4313 8.36856 10.4413 8.67744 10.4413 8.96639C10.4512 9.25535 10.4612 9.50942 10.4712 9.72863C10.4811 9.98769 10.4861 10.2218 10.4861 10.4311C10.4961 10.7101 10.4811 11.0837 10.4413 11.552C10.4014 12.0103 10.3566 12.4936 10.3068 13.0017C10.2669 13.5099 10.227 14.0081 10.1872 14.4963C10.1573 14.9746 10.1523 15.3731 10.1722 15.692C10.1722 15.8614 10.1772 16.0208 10.1872 16.1702C10.2071 16.3097 10.227 16.4492 10.247 16.5887C10.3765 16.23 10.521 15.8564 10.6804 15.4678C10.8398 15.0692 10.9992 14.6906 11.1587 14.3319C11.3181 13.9633 11.4675 13.6245 11.607 13.3156C11.7465 12.9968 11.8561 12.7327 11.9358 12.5235C12.0554 12.2445 12.2148 11.8908 12.4141 11.4623C12.6134 11.0339 12.8127 10.6054 13.0119 10.177C13.2212 9.74856 13.4105 9.35498 13.5799 8.99629C13.7592 8.63759 13.8888 8.38849 13.9685 8.249C14.0283 8.14936 14.1279 8.05969 14.2674 7.97997C14.4168 7.90026 14.5713 7.83052 14.7307 7.77073C14.9001 7.71095 15.0545 7.6711 15.194 7.65117C15.3435 7.62128 15.4431 7.6163 15.4929 7.63622C15.6225 7.66611 15.7121 7.70597 15.762 7.75579C15.8217 7.80561 15.8566 7.84048 15.8666 7.86041C15.8865 7.90026 15.9015 7.97001 15.9114 8.06965C15.9214 8.15932 15.9164 8.3038 15.8965 8.50308C15.8765 8.74221 15.8168 9.10589 15.7171 9.59412C15.6274 10.0823 15.5129 10.6403 15.3734 11.268C15.2438 11.8858 15.0994 12.5484 14.9399 13.2558C14.7905 13.9633 14.646 14.6607 14.5065 15.3482C14.367 16.0258 14.2425 16.6635 14.1329 17.2613C14.0332 17.8591 13.9685 18.3623 13.9386 18.7708C13.9186 19.2291 13.9485 19.6327 14.0283 19.9814C14.0581 20.1309 14.103 20.2753 14.1628 20.4148C14.2225 20.5543 14.3023 20.6739 14.4019 20.7735C14.5015 20.8831 14.6211 20.9628 14.7606 21.0127C14.9001 21.0625 15.0645 21.0774 15.2538 21.0575C15.0047 21.2269 14.7606 21.3514 14.5215 21.4311C14.2823 21.5109 14.0482 21.5507 13.819 21.5507C13.5699 21.5607 13.3507 21.5208 13.1614 21.4311C12.9721 21.3514 12.8127 21.2319 12.6831 21.0725C12.5536 20.923 12.4589 20.7387 12.3992 20.5195C12.3394 20.3102 12.3195 20.0761 12.3394 19.817C12.3593 19.5779 12.4241 19.1843 12.5337 18.6363C12.6433 18.0883 12.7728 17.4705 12.9223 16.783C13.0817 16.0856 13.2511 15.3632 13.4304 14.6159C13.6197 13.8586 13.7941 13.1512 13.9535 12.4936C14.1229 11.826 14.2674 11.2531 14.3869 10.7748C14.5065 10.2966 14.5812 9.98271 14.6111 9.83325C14.6311 9.71368 14.646 9.60408 14.656 9.50444C14.6759 9.39484 14.6958 9.30018 14.7158 9.22047C14.6161 9.41975 14.4916 9.65888 14.3421 9.93787C14.2026 10.2169 14.0532 10.5158 13.8937 10.8346C13.7343 11.1535 13.5699 11.4872 13.4005 11.836C13.2411 12.1747 13.0867 12.5036 12.9372 12.8224C12.6881 13.3405 12.444 13.8736 12.2049 14.4216C11.9657 14.9596 11.7515 15.4728 11.5622 15.961C11.3729 16.4492 11.2135 16.8876 11.0839 17.2762C10.9644 17.6648 10.8946 17.9637 10.8747 18.173V18.3822C10.8747 18.442 10.8747 18.5117 10.8747 18.5915C10.8847 18.6712 10.8996 18.7459 10.9195 18.8156L10.3217 19.279C10.232 19.3089 10.1523 19.3338 10.0826 19.3537C10.0228 19.3736 9.96301 19.3836 9.90323 19.3836C9.67406 19.3836 9.49969 19.264 9.38012 19.0249C9.26056 18.8057 9.15096 18.3772 9.05132 17.7395C8.95168 17.1019 8.92179 16.3197 8.96164 15.3931C8.98157 14.9347 9.01146 14.4714 9.05132 14.0031C9.10114 13.5348 9.14597 13.0864 9.18583 12.658C9.23565 12.2295 9.28049 11.831 9.32034 11.4623C9.3602 11.0837 9.38012 10.7599 9.38012 10.4909C9.39009 10.2916 9.38511 10.1122 9.36518 9.95281C9.34525 9.78343 9.32532 9.62899 9.3054 9.4895C9.21572 9.71866 9.11608 10.0325 9.00648 10.4311C8.89688 10.8197 8.78229 11.2531 8.66273 11.7314C8.54316 12.2096 8.41861 12.7128 8.28908 13.2409C8.16952 13.769 8.04995 14.2771 7.93039 14.7653C7.82078 15.2536 7.71616 15.7069 7.61653 16.1254C7.51689 16.5339 7.43718 16.8627 7.37739 17.1118C7.27776 17.5104 7.17812 17.9637 7.07848 18.4719C6.97884 18.98 6.85429 19.4583 6.70484 19.9067C6.55538 20.365 6.36108 20.7486 6.12195 21.0575C5.88282 21.3763 5.57394 21.5408 5.19531 21.5507ZM20.4998 16.3795C20.4001 16.7581 20.2656 17.1118 20.0962 17.4406C19.9268 17.7694 19.7226 18.0534 19.4834 18.2925C19.2543 18.5317 18.9902 18.716 18.6913 18.8455C18.4024 18.985 18.0835 19.0548 17.7348 19.0548C17.3263 19.0548 17.0025 18.9651 16.7633 18.7858C16.5342 18.6164 16.3598 18.4021 16.2402 18.1431C16.1306 17.884 16.0659 17.6001 16.0459 17.2912C16.016 16.9823 16.0011 16.6933 16.0011 16.4243C16.0011 16.235 16.026 16.0258 16.0758 15.7966C16.1157 15.5674 16.1755 15.3333 16.2552 15.0942C16.3349 14.855 16.4345 14.6159 16.5541 14.3768C16.6836 14.1376 16.8331 13.9184 17.0025 13.7191C17.0622 13.5498 17.1519 13.4003 17.2715 13.2708C17.401 13.1412 17.5455 13.0366 17.7049 12.9569C17.8743 12.8672 18.0536 12.8025 18.243 12.7626C18.4323 12.7128 18.6166 12.6879 18.7959 12.6879C18.8258 12.6879 18.8507 12.6929 18.8707 12.7028C18.9006 12.7128 18.9305 12.7228 18.9603 12.7327C19.0899 12.7427 19.2493 12.7925 19.4386 12.8822C19.6379 12.9719 19.8272 13.1064 20.0066 13.2857C20.1959 13.4651 20.3553 13.6942 20.4848 13.9732C20.6143 14.2422 20.6791 14.571 20.6791 14.9596C20.6791 15.0393 20.6741 15.139 20.6642 15.2586C20.6542 15.3682 20.6442 15.4628 20.6343 15.5425C20.8634 15.4528 21.1026 15.3432 21.3517 15.2137C21.6008 15.0842 21.8399 14.9497 22.0691 14.8102C22.3082 14.6607 22.5274 14.5113 22.7267 14.3618C22.926 14.2124 23.0854 14.0778 23.2049 13.9583C23.3046 13.8686 23.3893 13.8188 23.459 13.8088C23.5288 13.7989 23.5786 13.8188 23.6085 13.8686C23.6384 13.9184 23.6433 13.9882 23.6234 14.0778C23.6035 14.1675 23.5487 14.2672 23.459 14.3768C23.4092 14.4365 23.2797 14.5561 23.0704 14.7355C22.8712 14.9148 22.632 15.1091 22.353 15.3183C22.074 15.5276 21.7701 15.7318 21.4413 15.9311C21.1125 16.1304 20.7987 16.2798 20.4998 16.3795ZM17.9739 14.1077C17.944 14.1974 17.9291 14.2921 17.9291 14.3917C17.9291 14.5511 17.9391 14.7205 17.959 14.8999C17.9789 15.0692 18.0287 15.2237 18.1084 15.3632C18.1882 15.5027 18.3127 15.6222 18.4821 15.7219C18.6614 15.8115 18.9055 15.8564 19.2144 15.8564C19.2642 15.8564 19.3141 15.8564 19.3639 15.8564C19.4137 15.8464 19.4635 15.8365 19.5133 15.8265C19.5432 15.697 19.5681 15.5824 19.5881 15.4827C19.618 15.3731 19.6329 15.2785 19.6329 15.1988C19.6528 15.0095 19.6528 14.8152 19.6329 14.6159C19.613 14.4166 19.5731 14.2373 19.5133 14.0778C19.4635 13.9085 19.3938 13.7739 19.3041 13.6743C19.2244 13.5647 19.1248 13.5099 19.0052 13.5099C18.8159 13.5099 18.6315 13.5647 18.4522 13.6743C18.2828 13.7739 18.1234 13.9184 17.9739 14.1077ZM17.0174 16.7382C17.0174 16.9175 17.0274 17.0969 17.0473 17.2762C17.0672 17.4456 17.1071 17.6001 17.1669 17.7395C17.2266 17.8691 17.3064 17.9787 17.406 18.0684C17.5056 18.1481 17.6352 18.1879 17.7946 18.1879C17.9739 18.1879 18.1383 18.1481 18.2878 18.0684C18.4372 17.9787 18.5718 17.8691 18.6913 17.7395C18.8109 17.6001 18.9155 17.4456 19.0052 17.2762C19.1048 17.0969 19.1895 16.9126 19.2593 16.7232C19.1895 16.7332 19.1198 16.7432 19.05 16.7531C18.9902 16.7531 18.9205 16.7531 18.8408 16.7531C18.4622 16.7531 18.1334 16.6435 17.8544 16.4243C17.5853 16.1952 17.3761 15.9062 17.2266 15.5575C17.1669 15.7667 17.117 15.971 17.0772 16.1702C17.0373 16.3695 17.0174 16.5588 17.0174 16.7382ZM26.5378 19.1295C26.3087 19.1295 26.1094 19.0847 25.94 18.995C25.7806 18.9153 25.6511 18.8057 25.5514 18.6662C25.4518 18.5267 25.387 18.3673 25.3571 18.1879C25.3272 17.9986 25.3372 17.7993 25.387 17.5901C25.4169 17.4506 25.4667 17.2663 25.5365 17.0371C25.6062 16.798 25.676 16.5439 25.7457 16.2749C25.8254 15.9959 25.8952 15.7219 25.955 15.4528C26.0247 15.1739 26.0695 14.9248 26.0895 14.7056C26.1094 14.4764 26.0994 14.2921 26.0596 14.1526C26.0197 14.0031 25.935 13.9284 25.8055 13.9284C25.6461 13.9284 25.4817 13.9832 25.3123 14.0928C25.1429 14.1924 24.9685 14.3319 24.7892 14.5113C24.6198 14.6906 24.4454 14.8999 24.2661 15.139C24.0967 15.3682 23.9273 15.6073 23.7579 15.8564C23.6683 16.1952 23.5935 16.4941 23.5337 16.7531C23.474 17.0022 23.4192 17.2314 23.3693 17.4406C23.3295 17.6399 23.2896 17.8193 23.2498 17.9787C23.2099 18.1281 23.175 18.2726 23.1452 18.4121C23.1153 18.5117 23.0256 18.6114 22.8761 18.711C22.7267 18.8007 22.5673 18.8754 22.3979 18.9352C22.2285 18.995 22.084 19.0249 21.9644 19.0249C21.8349 19.0249 21.7801 18.98 21.8 18.8904C21.81 18.8306 21.8449 18.6961 21.9047 18.4868C21.9545 18.2776 22.0192 18.0335 22.099 17.7545C22.1687 17.4655 22.2434 17.1616 22.3231 16.8428C22.4029 16.524 22.4776 16.2201 22.5473 15.9311C22.5971 15.7019 22.6519 15.4479 22.7117 15.1689C22.7615 14.9297 22.8213 14.6508 22.8911 14.3319C22.9708 14.0131 23.0605 13.6643 23.1601 13.2857C23.2299 13.2259 23.2996 13.1811 23.3693 13.1512C23.4491 13.1113 23.5288 13.0815 23.6085 13.0615C23.6882 13.0316 23.7729 13.0117 23.8626 13.0017C23.9423 13.0017 24.022 13.0067 24.1017 13.0167C24.1714 13.0267 24.2412 13.0466 24.3109 13.0765C24.3906 13.0964 24.4604 13.1313 24.5202 13.1811C24.4903 13.2508 24.4554 13.3505 24.4155 13.48C24.3757 13.5996 24.3358 13.7291 24.296 13.8686C24.2561 14.028 24.2063 14.1924 24.1465 14.3618C24.2761 14.1825 24.4205 14.0031 24.5799 13.8238C24.7493 13.6344 24.9287 13.4651 25.118 13.3156C25.3173 13.1661 25.5265 13.0466 25.7457 12.9569C25.9649 12.8573 26.1891 12.8075 26.4183 12.8075C26.6076 12.8075 26.777 12.8623 26.9264 12.9719C27.0759 13.0815 27.1905 13.2359 27.2702 13.4352C27.3599 13.6245 27.4097 13.8537 27.4196 14.1227C27.4396 14.3917 27.4047 14.6856 27.315 15.0045L27.1506 15.6621C27.1008 15.8713 27.036 16.1204 26.9563 16.4094C26.8866 16.6884 26.7969 16.9972 26.6873 17.336C26.6275 17.5552 26.6026 17.7445 26.6126 17.904C26.6325 18.0634 26.7321 18.1431 26.9115 18.1431C27.0908 18.1431 27.315 18.0335 27.584 17.8143C27.863 17.5951 28.142 17.331 28.421 17.0222C28.7 16.7133 28.964 16.3994 29.2131 16.0806C29.4622 15.7518 29.6515 15.4877 29.7811 15.2884C29.8707 15.1589 29.9554 15.0742 30.0351 15.0344C30.1149 14.9945 30.1746 14.9895 30.2145 15.0194C30.2643 15.0493 30.2892 15.1191 30.2892 15.2287C30.2892 15.3283 30.2494 15.4578 30.1697 15.6173C30.0999 15.7567 29.9903 15.9411 29.8409 16.1702C29.7014 16.3994 29.532 16.6435 29.3327 16.9026C29.1334 17.1616 28.9192 17.4257 28.69 17.6947C28.4609 17.9538 28.2217 18.1929 27.9726 18.4121C27.7235 18.6213 27.4744 18.7907 27.2253 18.9203C26.9862 19.0598 26.757 19.1295 26.5378 19.1295ZM32.4564 9.95281C32.4265 10.0624 32.3667 10.172 32.277 10.2816C32.1973 10.3813 32.1026 10.466 31.993 10.5357C31.8934 10.5955 31.7888 10.6353 31.6792 10.6553C31.5696 10.6752 31.4799 10.6553 31.4102 10.5955C31.2009 10.4361 31.0913 10.2667 31.0814 10.0873C31.0714 9.89801 31.1162 9.72365 31.2159 9.56422C31.3155 9.39484 31.44 9.25535 31.5895 9.14574C31.739 9.02618 31.8685 8.95643 31.9781 8.9365C32.0877 8.91658 32.1774 8.94148 32.2471 9.01123C32.3268 9.07101 32.3866 9.15571 32.4265 9.26531C32.4663 9.36495 32.4863 9.47953 32.4863 9.60906C32.4962 9.73859 32.4863 9.85318 32.4564 9.95281ZM30.3938 13.1363C30.4437 13.0765 30.5383 13.0267 30.6778 12.9868C30.8173 12.9469 30.9618 12.9171 31.1112 12.8971C31.2607 12.8672 31.3952 12.8523 31.5148 12.8523C31.6443 12.8423 31.719 12.8423 31.739 12.8523C31.7489 12.8623 31.724 12.9669 31.6642 13.1661C31.6045 13.3654 31.5297 13.5996 31.44 13.8686C31.3504 14.1376 31.2557 14.4166 31.1561 14.7056C31.0564 14.9845 30.9817 15.2137 30.9319 15.3931C30.8821 15.5724 30.8223 15.7767 30.7525 16.0058C30.6828 16.225 30.618 16.4443 30.5582 16.6635C30.5084 16.8727 30.4736 17.072 30.4536 17.2613C30.4337 17.4506 30.4486 17.5951 30.4985 17.6947C30.5483 17.8143 30.6031 17.899 30.6629 17.9488C30.7227 17.9886 30.7874 18.0086 30.8572 18.0086C31.0564 18.0086 31.3055 17.899 31.6045 17.6798C31.9133 17.4606 32.2222 17.2015 32.5311 16.9026C32.8499 16.5937 33.1439 16.2848 33.4129 15.976C33.6819 15.6571 33.8812 15.403 34.0107 15.2137C34.0904 15.1141 34.1701 15.0493 34.2498 15.0194C34.3395 14.9895 34.4093 14.9945 34.4591 15.0344C34.5189 15.0742 34.5488 15.139 34.5488 15.2287C34.5587 15.3183 34.5288 15.423 34.4591 15.5425C34.2997 15.8215 34.0655 16.1553 33.7566 16.5439C33.4478 16.9225 33.119 17.2912 32.7702 17.6499C32.4215 17.9986 32.0777 18.2975 31.739 18.5466C31.4102 18.7957 31.1411 18.9252 30.9319 18.9352C30.7625 18.9452 30.5931 18.9153 30.4237 18.8455C30.2643 18.7858 30.1149 18.7011 29.9754 18.5915C29.8458 18.4719 29.7362 18.3374 29.6466 18.1879C29.5569 18.0285 29.5071 17.8641 29.4971 17.6947C29.4672 17.4456 29.4672 17.1068 29.4971 16.6784C29.527 16.24 29.5818 15.7966 29.6615 15.3482C29.7412 14.8899 29.8409 14.4565 29.9604 14.0479C30.0899 13.6394 30.2344 13.3355 30.3938 13.1363Z" fill="#0A55D0"/>
<path d="M44.4942 15.372C44.4345 15.6191 44.4005 15.8756 44.3952 16.1383C44.3627 17.769 45.4506 19.117 46.9523 19.4754C47.2305 19.5417 47.5229 19.5742 47.8251 19.5681L52.1998 19.4808C54.1326 19.4422 55.7308 17.844 55.7695 15.9111C55.808 13.9782 54.2724 12.4427 52.3395 12.4812L51.376 12.5005" stroke="#0A55D0" stroke-width="1.60331" stroke-linecap="round"/>
<path d="M41.8806 19.2636L40.9167 19.2828C38.9838 19.3214 37.4482 17.7858 37.4868 15.8529C37.5254 13.92 39.1235 12.3218 41.0564 12.2832L45.4312 12.1959C47.364 12.1573 48.8997 13.6929 48.861 15.6258C48.8559 15.8884 48.8218 16.1448 48.7621 16.3919" stroke="#0A55D0" stroke-width="1.60331" stroke-linecap="round"/>
<path d="M49.9338 24.485L48.558 23.1093M43.3162 24.485L44.692 23.1093" stroke="#0A55D0" stroke-width="1.60331" stroke-linecap="round" stroke-linejoin="round"/>
<path d="M43.3162 7.27947L44.6919 8.65518M49.9338 7.27947L48.5581 8.65518" stroke="#0A55D0" stroke-width="1.60331" stroke-linecap="round" stroke-linejoin="round"/>
<path d="M61.6008 15.142H66.5279V16.695H61.6008V15.142ZM61.7561 20.4785H59.9208V10.5962H67.1349V12.135H61.7561V20.4785ZM68.6025 20.4785V12.9397H70.2825V15.015L70.0849 14.4079C70.3107 13.8997 70.6637 13.5138 71.1437 13.2503C71.6331 12.9868 72.2401 12.855 72.9649 12.855V14.535C72.8896 14.5162 72.819 14.5068 72.7531 14.5068C72.6872 14.4973 72.6213 14.4926 72.5554 14.4926C71.8872 14.4926 71.3554 14.6903 70.9601 15.0856C70.5649 15.4715 70.3672 16.0503 70.3672 16.822V20.4785H68.6025ZM78.5689 20.4785V18.9538L78.4701 18.6291V15.9609C78.4701 15.4432 78.3148 15.0432 78.0042 14.7609C77.6936 14.4691 77.223 14.3232 76.5924 14.3232C76.1689 14.3232 75.7501 14.3891 75.336 14.5209C74.9313 14.6526 74.5877 14.8362 74.3054 15.0715L73.6136 13.7868C74.0183 13.4762 74.4983 13.2456 75.0536 13.095C75.6183 12.935 76.2018 12.855 76.8042 12.855C77.896 12.855 78.7383 13.1185 79.3313 13.6456C79.9336 14.1632 80.2348 14.9679 80.2348 16.0597V20.4785H78.5689ZM76.1971 20.5773C75.6324 20.5773 75.1383 20.4832 74.7148 20.295C74.2913 20.0973 73.9618 19.8291 73.7265 19.4903C73.5007 19.142 73.3877 18.7515 73.3877 18.3185C73.3877 17.895 73.4865 17.5138 73.6842 17.175C73.8913 16.8362 74.2254 16.5679 74.6865 16.3703C75.1477 16.1726 75.7595 16.0738 76.5218 16.0738H78.7101V17.2456H76.6489C76.0465 17.2456 75.6418 17.3444 75.4348 17.542C75.2277 17.7303 75.1242 17.9656 75.1242 18.2479C75.1242 18.5679 75.2513 18.822 75.5054 19.0103C75.7595 19.1985 76.1124 19.2926 76.5642 19.2926C76.9971 19.2926 77.383 19.1938 77.7218 18.9962C78.0701 18.7985 78.3195 18.5068 78.4701 18.1209L78.7665 19.1797C78.5971 19.622 78.2913 19.9656 77.8489 20.2103C77.416 20.455 76.8654 20.5773 76.1971 20.5773ZM86.6784 20.5773C86.0666 20.5773 85.5066 20.4362 84.9984 20.1538C84.4996 19.8715 84.0996 19.4479 83.7984 18.8832C83.5066 18.3091 83.3607 17.5844 83.3607 16.7091C83.3607 15.8244 83.5019 15.0997 83.7843 14.535C84.076 13.9703 84.4713 13.5515 84.9701 13.2785C85.469 12.9962 86.0384 12.855 86.6784 12.855C87.4219 12.855 88.076 13.015 88.6407 13.335C89.2149 13.655 89.6666 14.102 89.996 14.6762C90.3349 15.2503 90.5043 15.9279 90.5043 16.7091C90.5043 17.4903 90.3349 18.1726 89.996 18.7562C89.6666 19.3303 89.2149 19.7773 88.6407 20.0973C88.076 20.4173 87.4219 20.5773 86.6784 20.5773ZM82.4996 23.2173V12.9397H84.1796V14.7185L84.1231 16.7232L84.2643 18.7279V23.2173H82.4996ZM86.4807 19.0668C86.9043 19.0668 87.2807 18.9726 87.6101 18.7844C87.949 18.5962 88.2172 18.3232 88.4149 17.9656C88.6125 17.6079 88.7113 17.1891 88.7113 16.7091C88.7113 16.2197 88.6125 15.8009 88.4149 15.4526C88.2172 15.095 87.949 14.822 87.6101 14.6338C87.2807 14.4456 86.9043 14.3515 86.4807 14.3515C86.0572 14.3515 85.676 14.4456 85.3372 14.6338C84.9984 14.822 84.7301 15.095 84.5325 15.4526C84.3349 15.8009 84.236 16.2197 84.236 16.7091C84.236 17.1891 84.3349 17.6079 84.5325 17.9656C84.7301 18.3232 84.9984 18.5962 85.3372 18.7844C85.676 18.9726 86.0572 19.0668 86.4807 19.0668Z" fill="#0A55D0"/>
</g>
<defs>
<clipPath id="clip0_5470_8787">
<rect width="94.8529" height="30" fill="white"/>
</clipPath>
</defs>
</svg>
