<svg width="307" height="184" viewBox="0 0 307 184" fill="none" xmlns="http://www.w3.org/2000/svg">
<g clip-path="url(#clip0_5517_14920)">
<mask id="mask0_5517_14920" style="mask-type:alpha" maskUnits="userSpaceOnUse" x="0" y="0" width="307" height="184">
<rect width="307" height="184" rx="15" fill="white"/>
</mask>
<g mask="url(#mask0_5517_14920)">
<rect width="307" height="184" rx="15" fill="white"/>
<rect x="0.5" y="0.5" width="306" height="183" rx="14.5" stroke="#0A55D0" stroke-opacity="0.2"/>
<rect x="27.5" y="29.5" width="244" height="162" rx="15.5" fill="#F8FAFE"/>
<rect x="27.5" y="29.5" width="244" height="162" rx="15.5" stroke="#C1D9FF"/>
<path d="M94.4757 49.812C94.4757 48.996 94.6637 48.264 95.0397 47.616C95.4237 46.968 95.9397 46.464 96.5877 46.104C97.2437 45.736 97.9597 45.552 98.7357 45.552C99.6237 45.552 100.412 45.772 101.1 46.212C101.796 46.644 102.3 47.26 102.612 48.06H100.968C100.752 47.62 100.452 47.292 100.068 47.076C99.6837 46.86 99.2397 46.752 98.7357 46.752C98.1837 46.752 97.6917 46.876 97.2597 47.124C96.8277 47.372 96.4877 47.728 96.2397 48.192C95.9997 48.656 95.8797 49.196 95.8797 49.812C95.8797 50.428 95.9997 50.968 96.2397 51.432C96.4877 51.896 96.8277 52.256 97.2597 52.512C97.6917 52.76 98.1837 52.884 98.7357 52.884C99.2397 52.884 99.6837 52.776 100.068 52.56C100.452 52.344 100.752 52.016 100.968 51.576H102.612C102.3 52.376 101.796 52.992 101.1 53.424C100.412 53.856 99.6237 54.072 98.7357 54.072C97.9517 54.072 97.2357 53.892 96.5877 53.532C95.9397 53.164 95.4237 52.656 95.0397 52.008C94.6637 51.36 94.4757 50.628 94.4757 49.812ZM105.38 48.348C105.58 48.012 105.844 47.752 106.172 47.568C106.508 47.376 106.904 47.28 107.36 47.28V48.696H107.012C106.476 48.696 106.068 48.832 105.788 49.104C105.516 49.376 105.38 49.848 105.38 50.52V54H104.012V47.388H105.38V48.348ZM114.476 50.532C114.476 50.78 114.46 51.004 114.428 51.204H109.376C109.416 51.732 109.612 52.156 109.964 52.476C110.316 52.796 110.748 52.956 111.26 52.956C111.996 52.956 112.516 52.648 112.82 52.032H114.296C114.096 52.64 113.732 53.14 113.204 53.532C112.684 53.916 112.036 54.108 111.26 54.108C110.628 54.108 110.06 53.968 109.556 53.688C109.06 53.4 108.668 53 108.38 52.488C108.1 51.968 107.96 51.368 107.96 50.688C107.96 50.008 108.096 49.412 108.368 48.9C108.648 48.38 109.036 47.98 109.532 47.7C110.036 47.42 110.612 47.28 111.26 47.28C111.884 47.28 112.44 47.416 112.928 47.688C113.416 47.96 113.796 48.344 114.068 48.84C114.34 49.328 114.476 49.892 114.476 50.532ZM113.048 50.1C113.04 49.596 112.86 49.192 112.508 48.888C112.156 48.584 111.72 48.432 111.2 48.432C110.728 48.432 110.324 48.584 109.988 48.888C109.652 49.184 109.452 49.588 109.388 50.1H113.048ZM115.166 50.664C115.166 50 115.302 49.412 115.574 48.9C115.854 48.388 116.23 47.992 116.702 47.712C117.182 47.424 117.71 47.28 118.286 47.28C118.806 47.28 119.258 47.384 119.642 47.592C120.034 47.792 120.346 48.044 120.578 48.348V47.388H121.958V54H120.578V53.016C120.346 53.328 120.03 53.588 119.63 53.796C119.23 54.004 118.774 54.108 118.262 54.108C117.694 54.108 117.174 53.964 116.702 53.676C116.23 53.38 115.854 52.972 115.574 52.452C115.302 51.924 115.166 51.328 115.166 50.664ZM120.578 50.688C120.578 50.232 120.482 49.836 120.29 49.5C120.106 49.164 119.862 48.908 119.558 48.732C119.254 48.556 118.926 48.468 118.574 48.468C118.222 48.468 117.894 48.556 117.59 48.732C117.286 48.9 117.038 49.152 116.846 49.488C116.662 49.816 116.57 50.208 116.57 50.664C116.57 51.12 116.662 51.52 116.846 51.864C117.038 52.208 117.286 52.472 117.59 52.656C117.902 52.832 118.23 52.92 118.574 52.92C118.926 52.92 119.254 52.832 119.558 52.656C119.862 52.48 120.106 52.224 120.29 51.888C120.482 51.544 120.578 51.144 120.578 50.688ZM125.15 48.504V52.164C125.15 52.412 125.206 52.592 125.318 52.704C125.438 52.808 125.638 52.86 125.918 52.86H126.758V54H125.678C125.062 54 124.59 53.856 124.262 53.568C123.934 53.28 123.77 52.812 123.77 52.164V48.504H122.99V47.388H123.77V45.744H125.15V47.388H126.758V48.504H125.15ZM133.877 50.532C133.877 50.78 133.861 51.004 133.829 51.204H128.777C128.817 51.732 129.013 52.156 129.365 52.476C129.717 52.796 130.149 52.956 130.661 52.956C131.397 52.956 131.917 52.648 132.221 52.032H133.697C133.497 52.64 133.133 53.14 132.605 53.532C132.085 53.916 131.437 54.108 130.661 54.108C130.029 54.108 129.461 53.968 128.957 53.688C128.461 53.4 128.069 53 127.781 52.488C127.501 51.968 127.361 51.368 127.361 50.688C127.361 50.008 127.497 49.412 127.769 48.9C128.049 48.38 128.437 47.98 128.933 47.7C129.437 47.42 130.013 47.28 130.661 47.28C131.285 47.28 131.841 47.416 132.329 47.688C132.817 47.96 133.197 48.344 133.469 48.84C133.741 49.328 133.877 49.892 133.877 50.532ZM132.449 50.1C132.441 49.596 132.261 49.192 131.909 48.888C131.557 48.584 131.121 48.432 130.601 48.432C130.129 48.432 129.725 48.584 129.389 48.888C129.053 49.184 128.853 49.588 128.789 50.1H132.449ZM142.967 52.296H139.475L138.875 54H137.447L140.435 45.648H142.019L145.007 54H143.567L142.967 52.296ZM142.583 51.18L141.227 47.304L139.859 51.18H142.583ZM149.441 47.28C149.961 47.28 150.425 47.388 150.833 47.604C151.249 47.82 151.573 48.14 151.805 48.564C152.037 48.988 152.153 49.5 152.153 50.1V54H150.797V50.304C150.797 49.712 150.649 49.26 150.353 48.948C150.057 48.628 149.653 48.468 149.141 48.468C148.629 48.468 148.221 48.628 147.917 48.948C147.621 49.26 147.473 49.712 147.473 50.304V54H146.105V47.388H147.473V48.144C147.697 47.872 147.981 47.66 148.325 47.508C148.677 47.356 149.049 47.28 149.441 47.28ZM161.641 52.296H158.149L157.549 54H156.121L159.109 45.648H160.693L163.681 54H162.241L161.641 52.296ZM161.257 51.18L159.901 47.304L158.533 51.18H161.257ZM164.323 50.688C164.323 50.008 164.459 49.412 164.731 48.9C165.011 48.38 165.395 47.98 165.883 47.7C166.371 47.42 166.931 47.28 167.563 47.28C168.363 47.28 169.023 47.472 169.543 47.856C170.071 48.232 170.427 48.772 170.611 49.476H169.135C169.015 49.148 168.823 48.892 168.559 48.708C168.295 48.524 167.963 48.432 167.563 48.432C167.003 48.432 166.555 48.632 166.219 49.032C165.891 49.424 165.727 49.976 165.727 50.688C165.727 51.4 165.891 51.956 166.219 52.356C166.555 52.756 167.003 52.956 167.563 52.956C168.355 52.956 168.879 52.608 169.135 51.912H170.611C170.419 52.584 170.059 53.12 169.531 53.52C169.003 53.912 168.347 54.108 167.563 54.108C166.931 54.108 166.371 53.968 165.883 53.688C165.395 53.4 165.011 53 164.731 52.488C164.459 51.968 164.323 51.368 164.323 50.688ZM171.318 50.688C171.318 50.008 171.454 49.412 171.726 48.9C172.006 48.38 172.39 47.98 172.878 47.7C173.366 47.42 173.926 47.28 174.558 47.28C175.358 47.28 176.018 47.472 176.538 47.856C177.066 48.232 177.422 48.772 177.606 49.476H176.13C176.01 49.148 175.818 48.892 175.554 48.708C175.29 48.524 174.958 48.432 174.558 48.432C173.998 48.432 173.55 48.632 173.214 49.032C172.886 49.424 172.722 49.976 172.722 50.688C172.722 51.4 172.886 51.956 173.214 52.356C173.55 52.756 173.998 52.956 174.558 52.956C175.35 52.956 175.874 52.608 176.13 51.912H177.606C177.414 52.584 177.054 53.12 176.526 53.52C175.998 53.912 175.342 54.108 174.558 54.108C173.926 54.108 173.366 53.968 172.878 53.688C172.39 53.4 172.006 53 171.726 52.488C171.454 51.968 171.318 51.368 171.318 50.688ZM181.636 54.108C181.012 54.108 180.448 53.968 179.944 53.688C179.44 53.4 179.044 53 178.756 52.488C178.468 51.968 178.324 51.368 178.324 50.688C178.324 50.016 178.472 49.42 178.768 48.9C179.064 48.38 179.468 47.98 179.98 47.7C180.492 47.42 181.064 47.28 181.696 47.28C182.328 47.28 182.9 47.42 183.412 47.7C183.924 47.98 184.328 48.38 184.624 48.9C184.92 49.42 185.068 50.016 185.068 50.688C185.068 51.36 184.916 51.956 184.612 52.476C184.308 52.996 183.892 53.4 183.364 53.688C182.844 53.968 182.268 54.108 181.636 54.108ZM181.636 52.92C181.988 52.92 182.316 52.836 182.62 52.668C182.932 52.5 183.184 52.248 183.376 51.912C183.568 51.576 183.664 51.168 183.664 50.688C183.664 50.208 183.572 49.804 183.388 49.476C183.204 49.14 182.96 48.888 182.656 48.72C182.352 48.552 182.024 48.468 181.672 48.468C181.32 48.468 180.992 48.552 180.688 48.72C180.392 48.888 180.156 49.14 179.98 49.476C179.804 49.804 179.716 50.208 179.716 50.688C179.716 51.4 179.896 51.952 180.256 52.344C180.624 52.728 181.084 52.92 181.636 52.92ZM192.207 47.388V54H190.839V53.22C190.623 53.492 190.339 53.708 189.987 53.868C189.643 54.02 189.275 54.096 188.883 54.096C188.363 54.096 187.895 53.988 187.479 53.772C187.071 53.556 186.747 53.236 186.507 52.812C186.275 52.388 186.159 51.876 186.159 51.276V47.388H187.515V51.072C187.515 51.664 187.663 52.12 187.959 52.44C188.255 52.752 188.659 52.908 189.171 52.908C189.683 52.908 190.087 52.752 190.383 52.44C190.687 52.12 190.839 51.664 190.839 51.072V47.388H192.207ZM197.147 47.28C197.667 47.28 198.131 47.388 198.539 47.604C198.955 47.82 199.279 48.14 199.511 48.564C199.743 48.988 199.859 49.5 199.859 50.1V54H198.503V50.304C198.503 49.712 198.355 49.26 198.059 48.948C197.763 48.628 197.359 48.468 196.847 48.468C196.335 48.468 195.927 48.628 195.623 48.948C195.327 49.26 195.179 49.712 195.179 50.304V54H193.811V47.388H195.179V48.144C195.403 47.872 195.687 47.66 196.031 47.508C196.383 47.356 196.755 47.28 197.147 47.28ZM202.999 48.504V52.164C202.999 52.412 203.055 52.592 203.167 52.704C203.287 52.808 203.487 52.86 203.767 52.86H204.607V54H203.527C202.911 54 202.439 53.856 202.111 53.568C201.783 53.28 201.619 52.812 201.619 52.164V48.504H200.839V47.388H201.619V45.744H202.999V47.388H204.607V48.504H202.999Z" fill="#0A55D0" fill-opacity="0.45"/>
<rect x="37" y="65" width="225" height="34" rx="4" fill="white"/>
<path d="M67.9854 87.6044C67.4031 86.8335 66.6498 86.2083 65.7847 85.7781C64.9197 85.3478 63.9665 85.1244 63.0004 85.1252C62.0343 85.1244 61.0812 85.3478 60.2161 85.7781C59.351 86.2083 58.5977 86.8335 58.0154 87.6044M67.9854 87.6044C69.1217 86.5937 69.923 85.2615 70.2847 83.7845C70.6465 82.3074 70.5506 80.7553 70.01 79.334C69.4693 77.9126 68.5094 76.6892 67.2574 75.826C66.0055 74.9628 64.5207 74.5005 63 74.5005C61.4793 74.5005 59.9945 74.9628 58.7426 75.826C57.4906 76.6892 56.5307 77.9126 55.99 79.334C55.4494 80.7553 55.3535 82.3074 55.7153 83.7845C56.077 85.2615 56.8792 86.5937 58.0154 87.6044M67.9854 87.6044C66.6138 88.8279 64.8384 89.5029 63.0004 89.5002C61.1621 89.5031 59.3873 88.8281 58.0154 87.6044M65.5004 80.1252C65.5004 80.7883 65.237 81.4242 64.7682 81.893C64.2993 82.3619 63.6635 82.6252 63.0004 82.6252C62.3374 82.6252 61.7015 82.3619 61.2327 81.893C60.7638 81.4242 60.5004 80.7883 60.5004 80.1252C60.5004 79.4622 60.7638 78.8263 61.2327 78.3575C61.7015 77.8886 62.3374 77.6252 63.0004 77.6252C63.6635 77.6252 64.2993 77.8886 64.7682 78.3575C65.237 78.8263 65.5004 79.4622 65.5004 80.1252Z" stroke="#0A55D0" stroke-opacity="0.4" stroke-linecap="round" stroke-linejoin="round"/>
<path d="M82.0469 79.27V81.6H84.5869V82.35H82.0469V84.75H84.8869V85.5H81.1369V78.52H84.8869V79.27H82.0469ZM88.7328 79.92C89.3995 79.92 89.9395 80.1233 90.3528 80.53C90.7662 80.93 90.9728 81.51 90.9728 82.27V85.5H90.0728V82.4C90.0728 81.8533 89.9362 81.4367 89.6628 81.15C89.3895 80.8567 89.0162 80.71 88.5428 80.71C88.0628 80.71 87.6795 80.86 87.3928 81.16C87.1128 81.46 86.9728 81.8967 86.9728 82.47V85.5H86.0628V80.02H86.9728V80.8C87.1528 80.52 87.3962 80.3033 87.7028 80.15C88.0162 79.9967 88.3595 79.92 88.7328 79.92ZM93.3683 80.77V84C93.3683 84.2667 93.425 84.4567 93.5383 84.57C93.6517 84.6767 93.8483 84.73 94.1283 84.73H94.7983V85.5H93.9783C93.4717 85.5 93.0917 85.3833 92.8383 85.15C92.585 84.9167 92.4583 84.5333 92.4583 84V80.77H91.7483V80.02H92.4583V78.64H93.3683V80.02H94.7983V80.77H93.3683ZM100.7 82.55C100.7 82.7233 100.69 82.9067 100.67 83.1H96.2899C96.3232 83.64 96.5066 84.0633 96.8399 84.37C97.1799 84.67 97.5899 84.82 98.0699 84.82C98.4632 84.82 98.7899 84.73 99.0499 84.55C99.3166 84.3633 99.5032 84.1167 99.6099 83.81H100.59C100.443 84.3367 100.15 84.7667 99.7099 85.1C99.2699 85.4267 98.7232 85.59 98.0699 85.59C97.5499 85.59 97.0832 85.4733 96.6699 85.24C96.2632 85.0067 95.9432 84.6767 95.7099 84.25C95.4766 83.8167 95.3599 83.3167 95.3599 82.75C95.3599 82.1833 95.4732 81.6867 95.6999 81.26C95.9266 80.8333 96.2432 80.5067 96.6499 80.28C97.0632 80.0467 97.5366 79.93 98.0699 79.93C98.5899 79.93 99.0499 80.0433 99.4499 80.27C99.8499 80.4967 100.157 80.81 100.37 81.21C100.59 81.6033 100.7 82.05 100.7 82.55ZM99.7599 82.36C99.7599 82.0133 99.6832 81.7167 99.5299 81.47C99.3766 81.2167 99.1666 81.0267 98.8999 80.9C98.6399 80.7667 98.3499 80.7 98.0299 80.7C97.5699 80.7 97.1766 80.8467 96.8499 81.14C96.5299 81.4333 96.3466 81.84 96.2999 82.36H99.7599ZM102.61 80.91C102.77 80.5967 102.997 80.3533 103.29 80.18C103.59 80.0067 103.953 79.92 104.38 79.92V80.86H104.14C103.12 80.86 102.61 81.4133 102.61 82.52V85.5H101.7V80.02H102.61V80.91ZM111.635 78.53V79.27H108.605V81.62H111.065V82.36H108.605V85.5H107.695V78.53H111.635ZM117.393 80.02V85.5H116.483V84.69C116.309 84.97 116.066 85.19 115.753 85.35C115.446 85.5033 115.106 85.58 114.733 85.58C114.306 85.58 113.923 85.4933 113.583 85.32C113.243 85.14 112.973 84.8733 112.773 84.52C112.579 84.1667 112.483 83.7367 112.483 83.23V80.02H113.383V83.11C113.383 83.65 113.519 84.0667 113.793 84.36C114.066 84.6467 114.439 84.79 114.913 84.79C115.399 84.79 115.783 84.64 116.063 84.34C116.343 84.04 116.483 83.6033 116.483 83.03V80.02H117.393ZM119.638 78.1V85.5H118.728V78.1H119.638ZM121.898 78.1V85.5H120.988V78.1H121.898ZM131.193 85.5H130.283L126.623 79.95V85.5H125.713V78.52H126.623L130.283 84.06V78.52H131.193V85.5ZM132.203 82.74C132.203 82.18 132.317 81.69 132.543 81.27C132.77 80.8433 133.08 80.5133 133.473 80.28C133.873 80.0467 134.317 79.93 134.803 79.93C135.283 79.93 135.7 80.0333 136.053 80.24C136.407 80.4467 136.67 80.7067 136.843 81.02V80.02H137.763V85.5H136.843V84.48C136.663 84.8 136.393 85.0667 136.033 85.28C135.68 85.4867 135.267 85.59 134.793 85.59C134.307 85.59 133.867 85.47 133.473 85.23C133.08 84.99 132.77 84.6533 132.543 84.22C132.317 83.7867 132.203 83.2933 132.203 82.74ZM136.843 82.75C136.843 82.3367 136.76 81.9767 136.593 81.67C136.427 81.3633 136.2 81.13 135.913 80.97C135.633 80.8033 135.323 80.72 134.983 80.72C134.643 80.72 134.333 80.8 134.053 80.96C133.773 81.12 133.55 81.3533 133.383 81.66C133.217 81.9667 133.133 82.3267 133.133 82.74C133.133 83.16 133.217 83.5267 133.383 83.84C133.55 84.1467 133.773 84.3833 134.053 84.55C134.333 84.71 134.643 84.79 134.983 84.79C135.323 84.79 135.633 84.71 135.913 84.55C136.2 84.3833 136.427 84.1467 136.593 83.84C136.76 83.5267 136.843 83.1633 136.843 82.75ZM145.69 79.92C146.117 79.92 146.497 80.01 146.83 80.19C147.164 80.3633 147.427 80.6267 147.62 80.98C147.814 81.3333 147.91 81.7633 147.91 82.27V85.5H147.01V82.4C147.01 81.8533 146.874 81.4367 146.6 81.15C146.334 80.8567 145.97 80.71 145.51 80.71C145.037 80.71 144.66 80.8633 144.38 81.17C144.1 81.47 143.96 81.9067 143.96 82.48V85.5H143.06V82.4C143.06 81.8533 142.924 81.4367 142.65 81.15C142.384 80.8567 142.02 80.71 141.56 80.71C141.087 80.71 140.71 80.8633 140.43 81.17C140.15 81.47 140.01 81.9067 140.01 82.48V85.5H139.1V80.02H140.01V80.81C140.19 80.5233 140.43 80.3033 140.73 80.15C141.037 79.9967 141.374 79.92 141.74 79.92C142.2 79.92 142.607 80.0233 142.96 80.23C143.314 80.4367 143.577 80.74 143.75 81.14C143.904 80.7533 144.157 80.4533 144.51 80.24C144.864 80.0267 145.257 79.92 145.69 79.92ZM154.202 82.55C154.202 82.7233 154.192 82.9067 154.172 83.1H149.792C149.825 83.64 150.009 84.0633 150.342 84.37C150.682 84.67 151.092 84.82 151.572 84.82C151.965 84.82 152.292 84.73 152.552 84.55C152.819 84.3633 153.005 84.1167 153.112 83.81H154.092C153.945 84.3367 153.652 84.7667 153.212 85.1C152.772 85.4267 152.225 85.59 151.572 85.59C151.052 85.59 150.585 85.4733 150.172 85.24C149.765 85.0067 149.445 84.6767 149.212 84.25C148.979 83.8167 148.862 83.3167 148.862 82.75C148.862 82.1833 148.975 81.6867 149.202 81.26C149.429 80.8333 149.745 80.5067 150.152 80.28C150.565 80.0467 151.039 79.93 151.572 79.93C152.092 79.93 152.552 80.0433 152.952 80.27C153.352 80.4967 153.659 80.81 153.872 81.21C154.092 81.6033 154.202 82.05 154.202 82.55ZM153.262 82.36C153.262 82.0133 153.185 81.7167 153.032 81.47C152.879 81.2167 152.669 81.0267 152.402 80.9C152.142 80.7667 151.852 80.7 151.532 80.7C151.072 80.7 150.679 80.8467 150.352 81.14C150.032 81.4333 149.849 81.84 149.802 82.36H153.262Z" fill="#0A55D0" fill-opacity="0.4"/>
<rect x="37" y="104" width="225" height="34" rx="4" fill="white"/>
<path d="M61.75 112.25H59.875C59.3777 112.25 58.9008 112.448 58.5492 112.799C58.1975 113.151 58 113.628 58 114.125V127.875C58 128.372 58.1975 128.849 58.5492 129.201C58.9008 129.552 59.3777 129.75 59.875 129.75H66.125C66.6223 129.75 67.0992 129.552 67.4508 129.201C67.8025 128.849 68 128.372 68 127.875V114.125C68 113.628 67.8025 113.151 67.4508 112.799C67.0992 112.448 66.6223 112.25 66.125 112.25H64.25M61.75 112.25V113.5H64.25V112.25M61.75 112.25H64.25M61.75 127.875H64.25" stroke="#0A55D0" stroke-opacity="0.4" stroke-linecap="round" stroke-linejoin="round"/>
<path d="M81.8727 118.27V120.6H84.4127V121.35H81.8727V123.75H84.7127V124.5H80.9627V117.52H84.7127V118.27H81.8727ZM88.5587 118.92C89.2254 118.92 89.7654 119.123 90.1787 119.53C90.5921 119.93 90.7987 120.51 90.7987 121.27V124.5H89.8987V121.4C89.8987 120.853 89.7621 120.437 89.4887 120.15C89.2154 119.857 88.8421 119.71 88.3687 119.71C87.8887 119.71 87.5054 119.86 87.2187 120.16C86.9387 120.46 86.7987 120.897 86.7987 121.47V124.5H85.8887V119.02H86.7987V119.8C86.9787 119.52 87.2221 119.303 87.5287 119.15C87.8421 118.997 88.1854 118.92 88.5587 118.92ZM93.1942 119.77V123C93.1942 123.267 93.2509 123.457 93.3642 123.57C93.4775 123.677 93.6742 123.73 93.9542 123.73H94.6242V124.5H93.8042C93.2975 124.5 92.9175 124.383 92.6642 124.15C92.4109 123.917 92.2842 123.533 92.2842 123V119.77H91.5742V119.02H92.2842V117.64H93.1942V119.02H94.6242V119.77H93.1942ZM100.526 121.55C100.526 121.723 100.516 121.907 100.496 122.1H96.1158C96.1491 122.64 96.3325 123.063 96.6658 123.37C97.0058 123.67 97.4158 123.82 97.8958 123.82C98.2891 123.82 98.6158 123.73 98.8758 123.55C99.1425 123.363 99.3291 123.117 99.4358 122.81H100.416C100.269 123.337 99.9758 123.767 99.5358 124.1C99.0958 124.427 98.5491 124.59 97.8958 124.59C97.3758 124.59 96.9091 124.473 96.4958 124.24C96.0891 124.007 95.7691 123.677 95.5358 123.25C95.3025 122.817 95.1858 122.317 95.1858 121.75C95.1858 121.183 95.2991 120.687 95.5258 120.26C95.7525 119.833 96.0691 119.507 96.4758 119.28C96.8891 119.047 97.3625 118.93 97.8958 118.93C98.4158 118.93 98.8758 119.043 99.2758 119.27C99.6758 119.497 99.9825 119.81 100.196 120.21C100.416 120.603 100.526 121.05 100.526 121.55ZM99.5858 121.36C99.5858 121.013 99.5091 120.717 99.3558 120.47C99.2025 120.217 98.9925 120.027 98.7258 119.9C98.4658 119.767 98.1758 119.7 97.8558 119.7C97.3958 119.7 97.0025 119.847 96.6758 120.14C96.3558 120.433 96.1725 120.84 96.1258 121.36H99.5858ZM102.436 119.91C102.596 119.597 102.823 119.353 103.116 119.18C103.416 119.007 103.779 118.92 104.206 118.92V119.86H103.966C102.946 119.86 102.436 120.413 102.436 121.52V124.5H101.526V119.02H102.436V119.91ZM112.181 119.57C112.181 120.15 111.981 120.633 111.581 121.02C111.187 121.4 110.584 121.59 109.771 121.59H108.431V124.5H107.521V117.53H109.771C110.557 117.53 111.154 117.72 111.561 118.1C111.974 118.48 112.181 118.97 112.181 119.57ZM109.771 120.84C110.277 120.84 110.651 120.73 110.891 120.51C111.131 120.29 111.251 119.977 111.251 119.57C111.251 118.71 110.757 118.28 109.771 118.28H108.431V120.84H109.771ZM115.831 118.92C116.244 118.92 116.617 119.01 116.951 119.19C117.284 119.363 117.544 119.627 117.731 119.98C117.924 120.333 118.021 120.763 118.021 121.27V124.5H117.121V121.4C117.121 120.853 116.984 120.437 116.711 120.15C116.437 119.857 116.064 119.71 115.591 119.71C115.111 119.71 114.727 119.86 114.441 120.16C114.161 120.46 114.021 120.897 114.021 121.47V124.5H113.111V117.1H114.021V119.8C114.201 119.52 114.447 119.303 114.761 119.15C115.081 118.997 115.437 118.92 115.831 118.92ZM121.696 124.59C121.183 124.59 120.716 124.473 120.296 124.24C119.883 124.007 119.556 123.677 119.316 123.25C119.083 122.817 118.966 122.317 118.966 121.75C118.966 121.19 119.086 120.697 119.326 120.27C119.573 119.837 119.906 119.507 120.326 119.28C120.746 119.047 121.216 118.93 121.736 118.93C122.256 118.93 122.726 119.047 123.146 119.28C123.566 119.507 123.896 119.833 124.136 120.26C124.383 120.687 124.506 121.183 124.506 121.75C124.506 122.317 124.379 122.817 124.126 123.25C123.879 123.677 123.543 124.007 123.116 124.24C122.689 124.473 122.216 124.59 121.696 124.59ZM121.696 123.79C122.023 123.79 122.329 123.713 122.616 123.56C122.903 123.407 123.133 123.177 123.306 122.87C123.486 122.563 123.576 122.19 123.576 121.75C123.576 121.31 123.489 120.937 123.316 120.63C123.143 120.323 122.916 120.097 122.636 119.95C122.356 119.797 122.053 119.72 121.726 119.72C121.393 119.72 121.086 119.797 120.806 119.95C120.533 120.097 120.313 120.323 120.146 120.63C119.979 120.937 119.896 121.31 119.896 121.75C119.896 122.197 119.976 122.573 120.136 122.88C120.303 123.187 120.523 123.417 120.796 123.57C121.069 123.717 121.369 123.79 121.696 123.79ZM128.172 118.92C128.838 118.92 129.378 119.123 129.792 119.53C130.205 119.93 130.412 120.51 130.412 121.27V124.5H129.512V121.4C129.512 120.853 129.375 120.437 129.102 120.15C128.828 119.857 128.455 119.71 127.982 119.71C127.502 119.71 127.118 119.86 126.832 120.16C126.552 120.46 126.412 120.897 126.412 121.47V124.5H125.502V119.02H126.412V119.8C126.592 119.52 126.835 119.303 127.142 119.15C127.455 118.997 127.798 118.92 128.172 118.92ZM136.697 121.55C136.697 121.723 136.687 121.907 136.667 122.1H132.287C132.32 122.64 132.504 123.063 132.837 123.37C133.177 123.67 133.587 123.82 134.067 123.82C134.46 123.82 134.787 123.73 135.047 123.55C135.314 123.363 135.5 123.117 135.607 122.81H136.587C136.44 123.337 136.147 123.767 135.707 124.1C135.267 124.427 134.72 124.59 134.067 124.59C133.547 124.59 133.08 124.473 132.667 124.24C132.26 124.007 131.94 123.677 131.707 123.25C131.474 122.817 131.357 122.317 131.357 121.75C131.357 121.183 131.47 120.687 131.697 120.26C131.924 119.833 132.24 119.507 132.647 119.28C133.06 119.047 133.534 118.93 134.067 118.93C134.587 118.93 135.047 119.043 135.447 119.27C135.847 119.497 136.154 119.81 136.367 120.21C136.587 120.603 136.697 121.05 136.697 121.55ZM135.757 121.36C135.757 121.013 135.68 120.717 135.527 120.47C135.374 120.217 135.164 120.027 134.897 119.9C134.637 119.767 134.347 119.7 134.027 119.7C133.567 119.7 133.174 119.847 132.847 120.14C132.527 120.433 132.344 120.84 132.297 121.36H135.757ZM145.642 124.5H144.732L141.072 118.95V124.5H140.162V117.52H141.072L144.732 123.06V117.52H145.642V124.5ZM151.853 119.02V124.5H150.943V123.69C150.769 123.97 150.526 124.19 150.213 124.35C149.906 124.503 149.566 124.58 149.193 124.58C148.766 124.58 148.383 124.493 148.043 124.32C147.703 124.14 147.433 123.873 147.233 123.52C147.039 123.167 146.943 122.737 146.943 122.23V119.02H147.843V122.11C147.843 122.65 147.979 123.067 148.253 123.36C148.526 123.647 148.899 123.79 149.373 123.79C149.859 123.79 150.243 123.64 150.523 123.34C150.803 123.04 150.943 122.603 150.943 122.03V119.02H151.853ZM159.778 118.92C160.205 118.92 160.585 119.01 160.918 119.19C161.251 119.363 161.515 119.627 161.708 119.98C161.901 120.333 161.998 120.763 161.998 121.27V124.5H161.098V121.4C161.098 120.853 160.961 120.437 160.688 120.15C160.421 119.857 160.058 119.71 159.598 119.71C159.125 119.71 158.748 119.863 158.468 120.17C158.188 120.47 158.048 120.907 158.048 121.48V124.5H157.148V121.4C157.148 120.853 157.011 120.437 156.738 120.15C156.471 119.857 156.108 119.71 155.648 119.71C155.175 119.71 154.798 119.863 154.518 120.17C154.238 120.47 154.098 120.907 154.098 121.48V124.5H153.188V119.02H154.098V119.81C154.278 119.523 154.518 119.303 154.818 119.15C155.125 118.997 155.461 118.92 155.828 118.92C156.288 118.92 156.695 119.023 157.048 119.23C157.401 119.437 157.665 119.74 157.838 120.14C157.991 119.753 158.245 119.453 158.598 119.24C158.951 119.027 159.345 118.92 159.778 118.92ZM164.2 120.04C164.386 119.713 164.66 119.447 165.02 119.24C165.38 119.033 165.79 118.93 166.25 118.93C166.743 118.93 167.186 119.047 167.58 119.28C167.973 119.513 168.283 119.843 168.51 120.27C168.736 120.69 168.85 121.18 168.85 121.74C168.85 122.293 168.736 122.787 168.51 123.22C168.283 123.653 167.97 123.99 167.57 124.23C167.176 124.47 166.736 124.59 166.25 124.59C165.776 124.59 165.36 124.487 165 124.28C164.646 124.073 164.38 123.81 164.2 123.49V124.5H163.29V117.1H164.2V120.04ZM167.92 121.74C167.92 121.327 167.836 120.967 167.67 120.66C167.503 120.353 167.276 120.12 166.99 119.96C166.71 119.8 166.4 119.72 166.06 119.72C165.726 119.72 165.416 119.803 165.13 119.97C164.85 120.13 164.623 120.367 164.45 120.68C164.283 120.987 164.2 121.343 164.2 121.75C164.2 122.163 164.283 122.527 164.45 122.84C164.623 123.147 164.85 123.383 165.13 123.55C165.416 123.71 165.726 123.79 166.06 123.79C166.4 123.79 166.71 123.71 166.99 123.55C167.276 123.383 167.503 123.147 167.67 122.84C167.836 122.527 167.92 122.16 167.92 121.74ZM174.847 121.55C174.847 121.723 174.837 121.907 174.817 122.1H170.437C170.47 122.64 170.653 123.063 170.987 123.37C171.327 123.67 171.737 123.82 172.217 123.82C172.61 123.82 172.937 123.73 173.197 123.55C173.463 123.363 173.65 123.117 173.757 122.81H174.737C174.59 123.337 174.297 123.767 173.857 124.1C173.417 124.427 172.87 124.59 172.217 124.59C171.697 124.59 171.23 124.473 170.817 124.24C170.41 124.007 170.09 123.677 169.857 123.25C169.623 122.817 169.507 122.317 169.507 121.75C169.507 121.183 169.62 120.687 169.847 120.26C170.073 119.833 170.39 119.507 170.797 119.28C171.21 119.047 171.683 118.93 172.217 118.93C172.737 118.93 173.197 119.043 173.597 119.27C173.997 119.497 174.303 119.81 174.517 120.21C174.737 120.603 174.847 121.05 174.847 121.55ZM173.907 121.36C173.907 121.013 173.83 120.717 173.677 120.47C173.523 120.217 173.313 120.027 173.047 119.9C172.787 119.767 172.497 119.7 172.177 119.7C171.717 119.7 171.323 119.847 170.997 120.14C170.677 120.433 170.493 120.84 170.447 121.36H173.907ZM176.757 119.91C176.917 119.597 177.143 119.353 177.437 119.18C177.737 119.007 178.1 118.92 178.527 118.92V119.86H178.287C177.267 119.86 176.757 120.413 176.757 121.52V124.5H175.847V119.02H176.757V119.91Z" fill="#0A55D0" fill-opacity="0.4"/>
<rect x="37" y="143" width="225" height="34" rx="4" fill="white"/>
<path d="M71.125 157.5V158.255C71.125 158.593 71.0334 158.926 70.8598 159.216C70.6862 159.507 70.4372 159.745 70.1392 159.906L64.7408 162.812M54.875 157.5V158.255C54.875 158.593 54.9666 158.926 55.1402 159.216C55.3138 159.507 55.5628 159.745 55.8608 159.906L61.2592 162.812M61.2592 162.812L62.1108 162.354C62.3841 162.207 62.6896 162.13 63 162.13C63.3104 162.13 63.6159 162.207 63.8892 162.354L64.7417 162.812L68.625 164.904M61.2592 162.812L57.375 164.904M71.125 166.25C71.125 166.747 70.9275 167.224 70.5758 167.576C70.2242 167.927 69.7473 168.125 69.25 168.125H56.75C56.2527 168.125 55.7758 167.927 55.4242 167.576C55.0725 167.224 54.875 166.747 54.875 166.25V157.37C54.875 157.031 54.9666 156.699 55.1402 156.408C55.3138 156.118 55.5628 155.88 55.8608 155.719L62.1108 152.353C62.3841 152.206 62.6896 152.129 63 152.129C63.3104 152.129 63.6159 152.206 63.8892 152.353L70.1392 155.719C70.4371 155.879 70.686 156.118 70.8596 156.408C71.0332 156.699 71.1249 157.031 71.125 157.369V166.25Z" stroke="#0A55D0" stroke-opacity="0.4" stroke-linecap="round" stroke-linejoin="round"/>
<path d="M81.7484 157.27V159.6H84.2884V160.35H81.7484V162.75H84.5884V163.5H80.8384V156.52H84.5884V157.27H81.7484ZM88.4344 157.92C89.101 157.92 89.641 158.123 90.0544 158.53C90.4677 158.93 90.6744 159.51 90.6744 160.27V163.5H89.7744V160.4C89.7744 159.853 89.6377 159.437 89.3644 159.15C89.091 158.857 88.7177 158.71 88.2444 158.71C87.7644 158.71 87.381 158.86 87.0944 159.16C86.8144 159.46 86.6744 159.897 86.6744 160.47V163.5H85.7644V158.02H86.6744V158.8C86.8544 158.52 87.0977 158.303 87.4044 158.15C87.7177 157.997 88.061 157.92 88.4344 157.92ZM93.0699 158.77V162C93.0699 162.267 93.1265 162.457 93.2399 162.57C93.3532 162.677 93.5499 162.73 93.8299 162.73H94.4999V163.5H93.6799C93.1732 163.5 92.7932 163.383 92.5399 163.15C92.2865 162.917 92.1599 162.533 92.1599 162V158.77H91.4499V158.02H92.1599V156.64H93.0699V158.02H94.4999V158.77H93.0699ZM100.401 160.55C100.401 160.723 100.391 160.907 100.371 161.1H95.9915C96.0248 161.64 96.2081 162.063 96.5415 162.37C96.8815 162.67 97.2915 162.82 97.7715 162.82C98.1648 162.82 98.4915 162.73 98.7515 162.55C99.0181 162.363 99.2048 162.117 99.3115 161.81H100.291C100.145 162.337 99.8515 162.767 99.4115 163.1C98.9715 163.427 98.4248 163.59 97.7715 163.59C97.2515 163.59 96.7848 163.473 96.3715 163.24C95.9648 163.007 95.6448 162.677 95.4115 162.25C95.1781 161.817 95.0615 161.317 95.0615 160.75C95.0615 160.183 95.1748 159.687 95.4015 159.26C95.6281 158.833 95.9448 158.507 96.3515 158.28C96.7648 158.047 97.2381 157.93 97.7715 157.93C98.2915 157.93 98.7515 158.043 99.1515 158.27C99.5515 158.497 99.8581 158.81 100.071 159.21C100.291 159.603 100.401 160.05 100.401 160.55ZM99.4615 160.36C99.4615 160.013 99.3848 159.717 99.2315 159.47C99.0781 159.217 98.8681 159.027 98.6015 158.9C98.3415 158.767 98.0515 158.7 97.7315 158.7C97.2715 158.7 96.8781 158.847 96.5515 159.14C96.2315 159.433 96.0481 159.84 96.0015 160.36H99.4615ZM102.312 158.91C102.472 158.597 102.698 158.353 102.992 158.18C103.292 158.007 103.655 157.92 104.082 157.92V158.86H103.842C102.822 158.86 102.312 159.413 102.312 160.52V163.5H101.402V158.02H102.312V158.91ZM108.306 157.27V159.6H110.846V160.35H108.306V162.75H111.146V163.5H107.396V156.52H111.146V157.27H108.306ZM118.912 157.92C119.339 157.92 119.719 158.01 120.052 158.19C120.385 158.363 120.649 158.627 120.842 158.98C121.035 159.333 121.132 159.763 121.132 160.27V163.5H120.232V160.4C120.232 159.853 120.095 159.437 119.822 159.15C119.555 158.857 119.192 158.71 118.732 158.71C118.259 158.71 117.882 158.863 117.602 159.17C117.322 159.47 117.182 159.907 117.182 160.48V163.5H116.282V160.4C116.282 159.853 116.145 159.437 115.872 159.15C115.605 158.857 115.242 158.71 114.782 158.71C114.309 158.71 113.932 158.863 113.652 159.17C113.372 159.47 113.232 159.907 113.232 160.48V163.5H112.322V158.02H113.232V158.81C113.412 158.523 113.652 158.303 113.952 158.15C114.259 157.997 114.595 157.92 114.962 157.92C115.422 157.92 115.829 158.023 116.182 158.23C116.535 158.437 116.799 158.74 116.972 159.14C117.125 158.753 117.379 158.453 117.732 158.24C118.085 158.027 118.479 157.92 118.912 157.92ZM122.084 160.74C122.084 160.18 122.197 159.69 122.424 159.27C122.651 158.843 122.961 158.513 123.354 158.28C123.754 158.047 124.197 157.93 124.684 157.93C125.164 157.93 125.581 158.033 125.934 158.24C126.287 158.447 126.551 158.707 126.724 159.02V158.02H127.644V163.5H126.724V162.48C126.544 162.8 126.274 163.067 125.914 163.28C125.561 163.487 125.147 163.59 124.674 163.59C124.187 163.59 123.747 163.47 123.354 163.23C122.961 162.99 122.651 162.653 122.424 162.22C122.197 161.787 122.084 161.293 122.084 160.74ZM126.724 160.75C126.724 160.337 126.641 159.977 126.474 159.67C126.307 159.363 126.081 159.13 125.794 158.97C125.514 158.803 125.204 158.72 124.864 158.72C124.524 158.72 124.214 158.8 123.934 158.96C123.654 159.12 123.431 159.353 123.264 159.66C123.097 159.967 123.014 160.327 123.014 160.74C123.014 161.16 123.097 161.527 123.264 161.84C123.431 162.147 123.654 162.383 123.934 162.55C124.214 162.71 124.524 162.79 124.864 162.79C125.204 162.79 125.514 162.71 125.794 162.55C126.081 162.383 126.307 162.147 126.474 161.84C126.641 161.527 126.724 161.163 126.724 160.75ZM129.451 157.13C129.277 157.13 129.131 157.07 129.011 156.95C128.891 156.83 128.831 156.683 128.831 156.51C128.831 156.337 128.891 156.19 129.011 156.07C129.131 155.95 129.277 155.89 129.451 155.89C129.617 155.89 129.757 155.95 129.871 156.07C129.991 156.19 130.051 156.337 130.051 156.51C130.051 156.683 129.991 156.83 129.871 156.95C129.757 157.07 129.617 157.13 129.451 157.13ZM129.891 158.02V163.5H128.981V158.02H129.891ZM132.151 156.1V163.5H131.241V156.1H132.151Z" fill="#0A55D0" fill-opacity="0.4"/>
<rect width="307" height="184" rx="15" fill="url(#paint0_linear_5517_14920)" fill-opacity="0.6"/>
<rect x="0.5" y="0.5" width="306" height="183" rx="14.5" stroke="#0A55D0" stroke-opacity="0.2"/>
</g>
</g>
<defs>
<linearGradient id="paint0_linear_5517_14920" x1="153.5" y1="0" x2="154" y2="184" gradientUnits="userSpaceOnUse">
<stop stop-color="white" stop-opacity="0"/>
<stop offset="1" stop-color="white"/>
</linearGradient>
<clipPath id="clip0_5517_14920">
<rect width="307" height="184" fill="white"/>
</clipPath>
</defs>
</svg>
