<svg width="14" height="14" viewBox="0 0 14 14" fill="none" xmlns="http://www.w3.org/2000/svg">
<path d="M2.10426 4.68645L3.12334 3.80149C3.85752 3.16386 4.14534 2.82086 4.54294 2.94211C5.03872 3.09331 4.8755 4.04736 4.8755 4.36944C5.64632 4.36944 6.4477 4.31016 7.20749 4.43368C9.71569 4.84146 10.5 6.62599 10.5 8.54859C9.7901 8.11343 9.0809 7.62815 8.22768 7.42649C7.16263 7.17473 5.97316 7.29484 4.8755 7.29484C4.8755 7.61695 5.03872 8.57099 4.54294 8.72219C4.09243 8.85957 3.85752 8.50041 3.12334 7.86283L2.10426 6.97785C1.47922 6.43506 1.16667 6.16364 1.16667 5.83215C1.16667 5.50068 1.47922 5.22927 2.10426 4.68645Z" stroke="#7910B1" stroke-linecap="round" stroke-linejoin="round"/>
<path d="M7.83426 1.75C10.0861 1.75405 11.2652 1.80922 12.0188 2.56126C12.832 3.37285 12.832 4.67906 12.832 7.29149C12.832 9.90395 12.832 11.2102 12.0188 12.0217C11.2056 12.8333 9.89671 12.8333 7.27899 12.8333C4.66122 12.8333 3.35234 12.8333 2.53911 12.0217C1.97293 11.4567 1.80096 10.6518 1.7487 9.33333" stroke="#7910B1" stroke-linecap="round" stroke-linejoin="round"/>
</svg>
