<svg width="27" height="24" viewBox="0 0 27 24" fill="none" xmlns="http://www.w3.org/2000/svg">
<path fill-rule="evenodd" clip-rule="evenodd" d="M15.6661 10.6179C16.6642 10.5963 17.5557 10.0491 17.9449 9.21925C18.028 9.25087 18.1169 9.2683 18.207 9.27067H22.7647C23.2366 9.27067 23.6193 8.92534 23.6193 8.49935C23.6193 8.07336 23.2366 7.72802 22.7647 7.72802H18.264C18.2148 7.72221 18.165 7.72221 18.1158 7.72802C17.7895 6.57063 16.5336 5.83303 15.229 6.0325C13.9244 6.23197 13.0078 7.30174 13.122 8.49158C13.2362 9.68142 14.3429 10.593 15.6661 10.5871V10.6179ZM15.6661 7.58404C16.1255 7.58404 16.4979 7.92017 16.4979 8.3348C16.4979 8.74943 16.1255 9.08556 15.6661 9.08556C15.2067 9.08556 14.8343 8.74943 14.8343 8.3348C14.8343 7.92017 15.2067 7.58404 15.6661 7.58404Z" fill="#8C8C8C"/>
<path d="M4.5909 7.72802H11.4274C11.8994 7.72802 12.282 8.07336 12.282 8.49935C12.282 8.92534 11.8994 9.27067 11.4274 9.27067H4.5909C4.11893 9.27067 3.73633 8.92534 3.73633 8.49935C3.73633 8.07336 4.11893 7.72802 4.5909 7.72802Z" fill="#8C8C8C"/>
<path fill-rule="evenodd" clip-rule="evenodd" d="M6.76719 15.9555C7.12409 15.0444 8.07789 14.4347 9.14859 14.4334V14.4128C10.4371 14.4114 11.5228 15.2806 11.675 16.4354C11.8271 17.5902 10.9975 18.6651 9.74459 18.9364C8.49167 19.2077 7.21209 18.5896 6.76719 17.4981H4.5909C4.11893 17.4981 3.73633 17.1528 3.73633 16.7268C3.73633 16.3008 4.11893 15.9555 4.5909 15.9555H6.76719ZM8.31818 16.7809C8.32601 17.19 8.69529 17.5181 9.14859 17.5187V17.4776C9.60796 17.4776 9.98036 17.1414 9.98036 16.7268C9.95553 16.3183 9.57285 16.0029 9.11986 16.0177C8.66686 16.0324 8.31035 16.3718 8.31818 16.7809Z" fill="#8C8C8C"/>
<path d="M13.7063 15.9555H22.8217C23.2936 15.9555 23.6762 16.3008 23.6762 16.7268C23.6762 17.1528 23.2936 17.4981 22.8217 17.4981H13.7063C13.2343 17.4981 12.8517 17.1528 12.8517 16.7268C12.8517 16.3008 13.2343 15.9555 13.7063 15.9555Z" fill="#8C8C8C"/>
</svg>
